<?xml version="1.0" encoding="UTF-8"?>
<svg id="Layer_1" data-name="Layer 1" xmlns="http://www.w3.org/2000/svg" viewBox="0 0 561 347.19">
  <defs>
    <style>
      .cls-1 {
        fill: #fff;
      }

      .cls-2 {
        fill: #455b64;
      }

      .cls-3 {
        opacity: .5;
      }

      .cls-4 {
        fill: #f5f5f5;
      }

      .cls-5 {
        fill: #f3725f;
      }

      .cls-6 {
        fill: #e0e0e0;
      }

      .cls-7 {
        fill: #f7996e;
      }

      .cls-8 {
        opacity: .3;
      }

      .cls-9 {
        opacity: .6;
      }

      .cls-10 {
        fill: #ebebeb;
      }

      .cls-11 {
        fill: #fafbfb;
      }

      .cls-12 {
        opacity: .2;
      }

      .cls-13 {
        fill: #263238;
      }

      .cls-14 {
        fill: #fbbe9e;
      }
    </style>
  </defs>
  <path class="cls-4" d="m488.09,24.53h-60.42v190.21h60.42V24.53Z"/>
  <path class="cls-10" d="m488.1,24.53h-30.22v189.69h30.22V24.53Z"/>
  <path class="cls-4" d="m455.9,5.85h-21.33v18.67h21.33V5.85Z"/>
  <path class="cls-10" d="m455.9,5.85h-5.09v18.67h5.09V5.85Z"/>
  <path class="cls-6" d="m422.63,24.53v-1.09h67.24v1.09"/>
  <path class="cls-11" d="m444.71,32.67h-5.12v10.71h5.12v-10.71Z"/>
  <path class="cls-6" d="m457.88,47.58c0,.11-6.77.2-15.11.2s-15.11-.09-15.11-.2,6.77-.2,15.11-.2,15.11.09,15.11.2Z"/>
  <path class="cls-6" d="m475.18,32.67h-5.12v10.71h5.12v-10.71Z"/>
  <path class="cls-6" d="m488.36,47.58c0,.11-6.77.2-15.11.2s-15.11-.09-15.11-.2,6.77-.2,15.11-.2,15.11.09,15.11.2Z"/>
  <path class="cls-6" d="m475.18,53.94h-5.12v10.71h5.12v-10.71Z"/>
  <path class="cls-6" d="m488.36,68.85c0,.11-6.77.2-15.11.2s-15.11-.09-15.11-.2,6.77-.2,15.11-.2,15.11.09,15.11.2Z"/>
  <path class="cls-6" d="m475.18,75.85h-5.12v10.71h5.12v-10.71Z"/>
  <path class="cls-6" d="m488.36,90.76c0,.11-6.77.2-15.11.2s-15.11-.09-15.11-.2,6.77-.2,15.11-.2,15.11.09,15.11.2Z"/>
  <path class="cls-6" d="m475.18,97.75h-5.12v10.71h5.12v-10.71Z"/>
  <path class="cls-6" d="m488.36,112.67c0,.11-6.77.2-15.11.2s-15.11-.09-15.11-.2,6.77-.2,15.11-.2,15.11.09,15.11.2Z"/>
  <path class="cls-6" d="m475.18,119.04h-5.12v10.71h5.12v-10.71Z"/>
  <path class="cls-6" d="m488.36,133.95c0,.11-6.77.21-15.11.21s-15.11-.1-15.11-.21,6.77-.2,15.11-.2,15.11.09,15.11.2Z"/>
  <path class="cls-6" d="m475.18,140.41h-5.12v10.71h5.12v-10.71Z"/>
  <path class="cls-6" d="m475.18,162.05h-5.12v10.71h5.12v-10.71Z"/>
  <path class="cls-6" d="m488.36,155.33c0,.11-6.77.21-15.11.21s-15.11-.1-15.11-.21,6.77-.21,15.11-.21,15.11.1,15.11.21Z"/>
  <path class="cls-11" d="m444.71,54.26h-5.12v10.71h5.12v-10.71Z"/>
  <path class="cls-6" d="m457.88,69.18c0,.11-6.77.2-15.11.2s-15.11-.09-15.11-.2,6.77-.2,15.11-.2,15.11.09,15.11.2Z"/>
  <path class="cls-11" d="m444.71,75.85h-5.12v10.71h5.12v-10.71Z"/>
  <path class="cls-6" d="m457.88,90.77c0,.11-6.77.2-15.11.2s-15.11-.09-15.11-.2,6.77-.2,15.11-.2,15.11.09,15.11.2Z"/>
  <path class="cls-11" d="m444.71,97.44h-5.12v10.71h5.12v-10.71Z"/>
  <path class="cls-6" d="m457.88,112.36c0,.11-6.77.2-15.11.2s-15.11-.09-15.11-.2,6.77-.2,15.11-.2,15.11.09,15.11.2Z"/>
  <path class="cls-11" d="m444.71,119.04h-5.12v10.71h5.12v-10.71Z"/>
  <path class="cls-6" d="m457.88,133.95c0,.11-6.77.21-15.11.21s-15.11-.1-15.11-.21,6.77-.2,15.11-.2,15.11.09,15.11.2Z"/>
  <path class="cls-11" d="m444.71,140.63h-5.12v10.71h5.12v-10.71Z"/>
  <path class="cls-6" d="m457.88,155.55c0,.11-6.77.21-15.11.21s-15.11-.1-15.11-.21,6.77-.2,15.11-.2,15.11.09,15.11.2Z"/>
  <path class="cls-11" d="m444.71,162.22h-5.12v10.71h5.12v-10.71Z"/>
  <path class="cls-4" d="m558.36,106.24h-71.41v224.78h71.41V106.24Z"/>
  <path class="cls-10" d="m558.36,109.18h-35.71v221.84h35.71V109.18Z"/>
  <path class="cls-4" d="m520.33,87.12h-25.22v22.07h25.22v-22.07Z"/>
  <path class="cls-10" d="m520.33,87.12h-6.01v22.07h6.01v-22.07Z"/>
  <path class="cls-6" d="m481,109.18v-1.28h79.45v1.28"/>
  <path class="cls-11" d="m507.1,118.81h-6.04v12.66h6.04v-12.66Z"/>
  <path class="cls-6" d="m522.66,136.44c0,.13-7.99.24-17.85.24s-17.86-.11-17.86-.24,7.99-.24,17.86-.24,17.85.11,17.85.24Z"/>
  <path class="cls-6" d="m543.11,118.81h-6.05v12.66h6.05v-12.66Z"/>
  <path class="cls-6" d="m558.67,136.44c0,.13-7.99.24-17.85.24s-17.86-.11-17.86-.24,7.99-.24,17.86-.24,17.85.11,17.85.24Z"/>
  <path class="cls-6" d="m543.11,143.94h-6.05v12.66h6.05v-12.66Z"/>
  <path class="cls-6" d="m558.67,161.57c0,.13-7.99.24-17.85.24s-17.86-.11-17.86-.24,7.99-.24,17.86-.24,17.85.11,17.85.24Z"/>
  <path class="cls-6" d="m543.11,169.84h-6.05v12.66h6.05v-12.66Z"/>
  <path class="cls-6" d="m558.67,187.46c0,.13-7.99.24-17.85.24s-17.86-.11-17.86-.24,7.99-.24,17.86-.24,17.85.11,17.85.24Z"/>
  <path class="cls-6" d="m543.11,195.72h-6.05v12.66h6.05v-12.66Z"/>
  <path class="cls-6" d="m558.67,213.36c0,.13-7.99.24-17.85.24s-17.86-.11-17.86-.24,7.99-.24,17.86-.24,17.85.11,17.85.24Z"/>
  <path class="cls-6" d="m543.11,220.88h-6.05v12.66h6.05v-12.66Z"/>
  <path class="cls-6" d="m558.67,238.5c0,.13-7.99.24-17.85.24s-17.86-.11-17.86-.24,7.99-.24,17.86-.24,17.85.11,17.85.24Z"/>
  <path class="cls-6" d="m543.11,246.13h-6.05v12.66h6.05v-12.66Z"/>
  <path class="cls-6" d="m543.11,271.71h-6.05v12.66h6.05v-12.66Z"/>
  <path class="cls-6" d="m558.67,263.75c0,.13-7.99.24-17.85.24s-17.86-.11-17.86-.24,7.99-.24,17.86-.24,17.85.11,17.85.24Z"/>
  <path class="cls-11" d="m507.1,144.33h-6.04v12.66h6.04v-12.66Z"/>
  <path class="cls-6" d="m522.66,161.95c0,.13-7.99.24-17.85.24s-17.86-.11-17.86-.24,7.99-.24,17.86-.24,17.85.11,17.85.24Z"/>
  <path class="cls-11" d="m507.1,169.84h-6.04v12.66h6.04v-12.66Z"/>
  <path class="cls-6" d="m522.66,187.47c0,.13-7.99.24-17.85.24s-17.86-.11-17.86-.24,7.99-.24,17.86-.24,17.85.11,17.85.24Z"/>
  <path class="cls-11" d="m507.1,195.36h-6.04v12.66h6.04v-12.66Z"/>
  <path class="cls-6" d="m522.66,212.99c0,.13-7.99.24-17.85.24s-17.86-.11-17.86-.24,7.99-.24,17.86-.24,17.85.11,17.85.24Z"/>
  <path class="cls-11" d="m507.1,220.88h-6.04v12.66h6.04v-12.66Z"/>
  <path class="cls-6" d="m522.66,238.5c0,.13-7.99.24-17.85.24s-17.86-.11-17.86-.24,7.99-.24,17.86-.24,17.85.11,17.85.24Z"/>
  <path class="cls-11" d="m507.1,246.4h-6.04v12.66h6.04v-12.66Z"/>
  <path class="cls-6" d="m522.66,264.02c0,.13-7.99.24-17.85.24s-17.86-.11-17.86-.24,7.99-.24,17.86-.24,17.85.11,17.85.24Z"/>
  <path class="cls-11" d="m507.1,271.91h-6.04v12.66h6.04v-12.66Z"/>
  <path class="cls-4" d="m504.7,331.02h-92.95l-.4-145.9h92.95l.4,145.9Z"/>
  <path class="cls-10" d="m504.29,185.12h-46.47v145.9h46.47v-145.9Z"/>
  <path class="cls-4" d="m454.77,156.4h-32.82v28.72h32.82v-28.72Z"/>
  <path class="cls-10" d="m454.77,156.4h-7.82v28.72h7.82v-28.72Z"/>
  <path class="cls-6" d="m507.01,183.45h-103.41v1.68h103.41v-1.68Z"/>
  <path class="cls-1" d="m437.56,197.65h-7.87v16.48h7.87v-16.48Z"/>
  <path class="cls-6" d="m457.82,220.6c0,.17-10.4.31-23.24.31s-23.24-.14-23.24-.31,10.4-.32,23.24-.32,23.24.14,23.24.32Z"/>
  <path class="cls-4" d="m484.44,197.65h-7.87v16.48h7.87v-16.48Z"/>
  <path class="cls-6" d="m504.7,220.6c0,.17-10.4.31-23.24.31s-23.24-.14-23.24-.31,10.4-.32,23.24-.32,23.24.14,23.24.32Z"/>
  <path class="cls-4" d="m484.44,230.36h-7.87v16.48h7.87v-16.48Z"/>
  <path class="cls-6" d="m504.7,253.3c0,.17-10.4.32-23.24.32s-23.24-.14-23.24-.32,10.4-.31,23.24-.31,23.24.14,23.24.31Z"/>
  <path class="cls-4" d="m484.44,264.06h-7.87v16.48h7.87v-16.48Z"/>
  <path class="cls-6" d="m504.7,287.01c0,.17-10.4.32-23.24.32s-23.24-.14-23.24-.32,10.4-.31,23.24-.31,23.24.14,23.24.31Z"/>
  <path class="cls-4" d="m484.44,297.76h-7.87v16.48h7.87v-16.48Z"/>
  <path class="cls-6" d="m504.7,320.71c0,.17-10.4.32-23.24.32s-23.24-.14-23.24-.32,10.4-.31,23.24-.31,23.24.14,23.24.31Z"/>
  <path class="cls-1" d="m437.56,230.86h-7.87v16.48h7.87v-16.48Z"/>
  <path class="cls-6" d="m457.82,253.8c0,.17-10.4.32-23.24.32s-23.24-.14-23.24-.32,10.4-.32,23.24-.32,23.24.14,23.24.32Z"/>
  <path class="cls-1" d="m437.56,264.08h-7.87v16.48h7.87v-16.48Z"/>
  <path class="cls-6" d="m457.82,287.01c0,.17-10.4.31-23.24.31s-23.24-.14-23.24-.31,10.4-.32,23.24-.32,23.24.14,23.24.32Z"/>
  <path class="cls-1" d="m437.56,297.28h-7.87v16.48h7.87v-16.48Z"/>
  <path class="cls-6" d="m457.82,320.23c0,.17-10.4.32-23.24.32s-23.24-.14-23.24-.32,10.4-.31,23.24-.31,23.24.14,23.24.31Z"/>
  <path class="cls-4" d="m155.34,21.61h-69.93v220.12h69.93V21.61Z"/>
  <path class="cls-10" d="m155.34,21.61h-34.96v219.51h34.96V21.61Z"/>
  <path class="cls-4" d="m118.08,0h-24.69v21.61h24.69V0Z"/>
  <path class="cls-10" d="m118.08,0h-5.89v21.61h5.89V0Z"/>
  <path class="cls-6" d="m79.58,21.61v-1.26h77.81v1.26"/>
  <path class="cls-11" d="m105.13,31.03h-5.92v12.39h5.92v-12.39Z"/>
  <path class="cls-6" d="m120.37,48.29c0,.13-7.83.24-17.49.24s-17.48-.1-17.48-.24,7.83-.24,17.48-.24,17.49.1,17.49.24Z"/>
  <path class="cls-6" d="m140.4,31.03h-5.92v12.39h5.92v-12.39Z"/>
  <path class="cls-6" d="m155.65,48.29c0,.13-7.83.24-17.49.24s-17.49-.1-17.49-.24,7.83-.24,17.49-.24,17.49.1,17.49.24Z"/>
  <path class="cls-6" d="m140.4,55.64h-5.92v12.39h5.92v-12.39Z"/>
  <path class="cls-6" d="m155.65,72.9c0,.13-7.83.24-17.49.24s-17.49-.1-17.49-.24,7.83-.24,17.49-.24,17.49.1,17.49.24Z"/>
  <path class="cls-6" d="m140.4,81h-5.92v12.39h5.92v-12.39Z"/>
  <path class="cls-6" d="m155.65,98.25c0,.13-7.83.24-17.49.24s-17.49-.1-17.49-.24,7.83-.24,17.49-.24,17.49.1,17.49.24Z"/>
  <path class="cls-6" d="m140.4,106.35h-5.92v12.39h5.92v-12.39Z"/>
  <path class="cls-6" d="m155.65,123.61c0,.13-7.83.24-17.49.24s-17.49-.1-17.49-.24,7.83-.24,17.49-.24,17.49.1,17.49.24Z"/>
  <path class="cls-6" d="m140.4,130.98h-5.92v12.39h5.92v-12.39Z"/>
  <path class="cls-6" d="m155.65,148.24c0,.13-7.83.24-17.49.24s-17.49-.1-17.49-.24,7.83-.24,17.49-.24,17.49.1,17.49.24Z"/>
  <path class="cls-6" d="m140.4,155.7h-5.92v12.39h5.92v-12.39Z"/>
  <path class="cls-6" d="m140.4,180.76h-5.92v12.39h5.92v-12.39Z"/>
  <path class="cls-6" d="m155.65,172.97c0,.13-7.83.24-17.49.24s-17.49-.1-17.49-.24,7.83-.24,17.49-.24,17.49.1,17.49.24Z"/>
  <path class="cls-11" d="m105.13,56.02h-5.92v12.39h5.92v-12.39Z"/>
  <path class="cls-6" d="m120.37,73.28c0,.13-7.83.24-17.49.24s-17.48-.1-17.48-.24,7.83-.24,17.48-.24,17.49.1,17.49.24Z"/>
  <path class="cls-11" d="m105.13,81.01h-5.92v12.39h5.92v-12.39Z"/>
  <path class="cls-6" d="m120.37,98.26c0,.13-7.83.24-17.49.24s-17.48-.1-17.48-.24,7.83-.24,17.48-.24,17.49.1,17.49.24Z"/>
  <path class="cls-11" d="m105.13,105.99h-5.92v12.39h5.92v-12.39Z"/>
  <path class="cls-6" d="m120.37,123.25c0,.13-7.83.24-17.49.24s-17.48-.1-17.48-.24,7.83-.24,17.48-.24,17.49.1,17.49.24Z"/>
  <path class="cls-11" d="m105.13,130.98h-5.92v12.39h5.92v-12.39Z"/>
  <path class="cls-6" d="m120.37,148.24c0,.13-7.83.24-17.49.24s-17.48-.1-17.48-.24,7.83-.24,17.48-.24,17.49.1,17.49.24Z"/>
  <path class="cls-11" d="m105.13,155.96h-5.92v12.39h5.92v-12.39Z"/>
  <path class="cls-6" d="m120.37,173.23c0,.13-7.83.24-17.49.24s-17.48-.1-17.48-.24,7.83-.24,17.48-.24,17.49.1,17.49.24Z"/>
  <path class="cls-11" d="m105.13,180.95h-5.92v12.39h5.92v-12.39Z"/>
  <path class="cls-4" d="m225.47,39.32h-63.64v200.31h63.64V39.32Z"/>
  <path class="cls-10" d="m225.46,39.32h-31.82v199.76h31.82V39.32Z"/>
  <path class="cls-6" d="m227.33,38.18h-67.86v1.15h67.86v-1.15Z"/>
  <path class="cls-11" d="m179.78,47.9h-5.39v11.28h5.39v-11.28Z"/>
  <path class="cls-6" d="m193.64,63.61c0,.12-7.12.21-15.91.21s-15.91-.09-15.91-.21,7.12-.21,15.91-.21,15.91.09,15.91.21Z"/>
  <path class="cls-6" d="m211.87,47.9h-5.39v11.28h5.39v-11.28Z"/>
  <path class="cls-6" d="m225.74,63.61c0,.12-7.12.21-15.91.21s-15.91-.09-15.91-.21,7.12-.21,15.91-.21,15.91.09,15.91.21Z"/>
  <path class="cls-6" d="m211.87,70.3h-5.39v11.28h5.39v-11.28Z"/>
  <path class="cls-6" d="m225.74,86c0,.12-7.12.21-15.91.21s-15.91-.09-15.91-.21,7.12-.21,15.91-.21,15.91.09,15.91.21Z"/>
  <path class="cls-6" d="m211.87,93.37h-5.39v11.28h5.39v-11.28Z"/>
  <path class="cls-6" d="m225.74,109.07c0,.12-7.12.21-15.91.21s-15.91-.09-15.91-.21,7.12-.21,15.91-.21,15.91.1,15.91.21Z"/>
  <path class="cls-6" d="m211.87,116.44h-5.39v11.28h5.39v-11.28Z"/>
  <path class="cls-6" d="m225.74,132.15c0,.12-7.12.21-15.91.21s-15.91-.1-15.91-.21,7.12-.21,15.91-.21,15.91.09,15.91.21Z"/>
  <path class="cls-6" d="m211.87,138.86h-5.39v11.28h5.39v-11.28Z"/>
  <path class="cls-6" d="m225.74,154.56c0,.12-7.12.21-15.91.21s-15.91-.09-15.91-.21,7.12-.21,15.91-.21,15.91.1,15.91.21Z"/>
  <path class="cls-6" d="m211.87,161.36h-5.39v11.28h5.39v-11.28Z"/>
  <path class="cls-6" d="m211.87,184.16h-5.39v11.28h5.39v-11.28Z"/>
  <path class="cls-6" d="m225.74,177.07c0,.12-7.12.21-15.91.21s-15.91-.09-15.91-.21,7.12-.21,15.91-.21,15.91.1,15.91.21Z"/>
  <path class="cls-11" d="m179.78,70.64h-5.39v11.28h5.39v-11.28Z"/>
  <path class="cls-6" d="m193.64,86.35c0,.12-7.12.21-15.91.21s-15.91-.09-15.91-.21,7.12-.21,15.91-.21,15.91.09,15.91.21Z"/>
  <path class="cls-11" d="m179.78,93.38h-5.39v11.28h5.39v-11.28Z"/>
  <path class="cls-6" d="m193.64,109.08c0,.12-7.12.21-15.91.21s-15.91-.09-15.91-.21,7.12-.21,15.91-.21,15.91.09,15.91.21Z"/>
  <path class="cls-11" d="m179.78,116.12h-5.39v11.28h5.39v-11.28Z"/>
  <path class="cls-6" d="m193.64,131.82c0,.12-7.12.21-15.91.21s-15.91-.09-15.91-.21,7.12-.21,15.91-.21,15.91.09,15.91.21Z"/>
  <path class="cls-11" d="m179.78,138.86h-5.39v11.28h5.39v-11.28Z"/>
  <path class="cls-6" d="m193.64,154.56c0,.12-7.12.21-15.91.21s-15.91-.09-15.91-.21,7.12-.21,15.91-.21,15.91.1,15.91.21Z"/>
  <path class="cls-11" d="m179.78,161.6h-5.39v11.28h5.39v-11.28Z"/>
  <path class="cls-6" d="m193.64,177.3c0,.12-7.12.21-15.91.21s-15.91-.09-15.91-.21,7.12-.21,15.91-.21,15.91.1,15.91.21Z"/>
  <path class="cls-11" d="m179.78,184.34h-5.39v11.28h5.39v-11.28Z"/>
  <path class="cls-4" d="m81.53,110.76H11.6v220.12h69.93V110.76Z"/>
  <path class="cls-10" d="m81.53,110.76h-34.96v219.51h34.96V110.76Z"/>
  <path class="cls-4" d="m44.28,89.15h-24.69v21.61h24.69v-21.61Z"/>
  <path class="cls-10" d="m44.28,89.15h-5.89v21.61h5.89v-21.61Z"/>
  <path class="cls-6" d="m5.78,110.76v-1.26h77.8v1.26"/>
  <path class="cls-11" d="m31.33,120.18h-5.92v12.39h5.92v-12.39Z"/>
  <path class="cls-6" d="m46.57,137.45c0,.13-7.83.24-17.48.24s-17.48-.1-17.48-.24,7.83-.24,17.48-.24,17.48.1,17.48.24Z"/>
  <path class="cls-6" d="m66.59,120.18h-5.92v12.39h5.92v-12.39Z"/>
  <path class="cls-6" d="m81.84,137.45c0,.13-7.83.24-17.48.24s-17.49-.1-17.49-.24,7.83-.24,17.49-.24,17.48.1,17.48.24Z"/>
  <path class="cls-6" d="m66.59,144.8h-5.92v12.39h5.92v-12.39Z"/>
  <path class="cls-6" d="m81.84,162.06c0,.13-7.83.24-17.48.24s-17.49-.1-17.49-.24,7.83-.24,17.49-.24,17.48.1,17.48.24Z"/>
  <path class="cls-6" d="m66.59,170.15h-5.92v12.39h5.92v-12.39Z"/>
  <path class="cls-6" d="m81.84,187.41c0,.13-7.83.24-17.48.24s-17.49-.1-17.49-.24,7.83-.24,17.49-.24,17.48.1,17.48.24Z"/>
  <path class="cls-6" d="m66.59,195.5h-5.92v12.39h5.92v-12.39Z"/>
  <path class="cls-6" d="m81.84,212.77c0,.13-7.83.24-17.48.24s-17.49-.1-17.49-.24,7.83-.24,17.49-.24,17.48.1,17.48.24Z"/>
  <path class="cls-6" d="m66.59,220.13h-5.92v12.39h5.92v-12.39Z"/>
  <path class="cls-6" d="m81.84,237.39c0,.13-7.83.24-17.48.24s-17.49-.1-17.49-.24,7.83-.24,17.49-.24,17.48.1,17.48.24Z"/>
  <path class="cls-6" d="m66.59,244.86h-5.92v12.39h5.92v-12.39Z"/>
  <path class="cls-6" d="m66.59,269.92h-5.92v12.39h5.92v-12.39Z"/>
  <path class="cls-6" d="m81.84,262.13c0,.13-7.83.24-17.48.24s-17.49-.1-17.49-.24,7.83-.24,17.49-.24,17.48.1,17.48.24Z"/>
  <path class="cls-11" d="m31.33,145.18h-5.92v12.39h5.92v-12.39Z"/>
  <path class="cls-6" d="m46.57,162.43c0,.13-7.83.24-17.48.24s-17.48-.1-17.48-.24,7.83-.24,17.48-.24,17.48.1,17.48.24Z"/>
  <path class="cls-11" d="m31.33,170.16h-5.92v12.39h5.92v-12.39Z"/>
  <path class="cls-6" d="m46.57,187.42c0,.13-7.83.24-17.48.24s-17.48-.1-17.48-.24,7.83-.24,17.48-.24,17.48.1,17.48.24Z"/>
  <path class="cls-11" d="m31.33,195.15h-5.92v12.39h5.92v-12.39Z"/>
  <path class="cls-6" d="m46.57,212.4c0,.13-7.83.24-17.48.24s-17.48-.1-17.48-.24,7.83-.24,17.48-.24,17.48.11,17.48.24Z"/>
  <path class="cls-11" d="m31.33,220.13h-5.92v12.39h5.92v-12.39Z"/>
  <path class="cls-6" d="m46.57,237.39c0,.13-7.83.24-17.48.24s-17.48-.1-17.48-.24,7.83-.24,17.48-.24,17.48.1,17.48.24Z"/>
  <path class="cls-11" d="m31.33,245.12h-5.92v12.39h5.92v-12.39Z"/>
  <path class="cls-6" d="m46.57,262.39c0,.13-7.83.24-17.48.24s-17.48-.1-17.48-.24,7.83-.24,17.48-.24,17.48.1,17.48.24Z"/>
  <path class="cls-11" d="m31.33,270.1h-5.92v12.39h5.92v-12.39Z"/>
  <path class="cls-4" d="m158.78,330.77h-91.01l-.4-142.87h91.01l.4,142.87Z"/>
  <path class="cls-10" d="m158.39,187.9h-45.51v142.87h45.51v-142.87Z"/>
  <path class="cls-4" d="m109.91,159.78h-32.14v28.13h32.14v-28.13Z"/>
  <path class="cls-10" d="m109.91,159.78h-7.66v28.13h7.66v-28.13Z"/>
  <path class="cls-6" d="m161.05,186.26H59.78v1.64h101.27v-1.64Z"/>
  <path class="cls-1" d="m93.04,200.17h-7.7v16.14h7.7v-16.14Z"/>
  <path class="cls-6" d="m112.88,222.64c0,.17-10.19.31-22.75.31s-22.75-.13-22.75-.31,10.19-.31,22.75-.31,22.75.14,22.75.31Z"/>
  <path class="cls-4" d="m138.95,200.17h-7.7v16.14h7.7v-16.14Z"/>
  <path class="cls-6" d="m158.78,222.64c0,.17-10.19.31-22.75.31s-22.75-.13-22.75-.31,10.19-.31,22.75-.31,22.75.14,22.75.31Z"/>
  <path class="cls-4" d="m138.95,232.21h-7.7v16.14h7.7v-16.14Z"/>
  <path class="cls-6" d="m158.78,254.67c0,.17-10.19.31-22.75.31s-22.75-.14-22.75-.31,10.19-.31,22.75-.31,22.75.14,22.75.31Z"/>
  <path class="cls-4" d="m138.95,265.2h-7.7v16.14h7.7v-16.14Z"/>
  <path class="cls-6" d="m158.78,287.67c0,.17-10.19.31-22.75.31s-22.75-.14-22.75-.31,10.19-.31,22.75-.31,22.75.14,22.75.31Z"/>
  <path class="cls-4" d="m138.95,298.2h-7.7v16.14h7.7v-16.14Z"/>
  <path class="cls-6" d="m158.78,320.68c0,.17-10.19.31-22.75.31s-22.75-.14-22.75-.31,10.19-.31,22.75-.31,22.75.14,22.75.31Z"/>
  <path class="cls-1" d="m93.04,232.7h-7.7v16.14h7.7v-16.14Z"/>
  <path class="cls-6" d="m112.88,255.16c0,.17-10.19.31-22.75.31s-22.75-.14-22.75-.31,10.19-.31,22.75-.31,22.75.14,22.75.31Z"/>
  <path class="cls-1" d="m93.04,265.22h-7.7v16.14h7.7v-16.14Z"/>
  <path class="cls-6" d="m112.88,287.68c0,.17-10.19.31-22.75.31s-22.75-.14-22.75-.31,10.19-.31,22.75-.31,22.75.14,22.75.31Z"/>
  <path class="cls-1" d="m93.04,297.74h-7.7v16.14h7.7v-16.14Z"/>
  <path class="cls-6" d="m112.88,320.2c0,.17-10.19.31-22.75.31s-22.75-.14-22.75-.31,10.19-.31,22.75-.31,22.75.14,22.75.31Z"/>
  <path class="cls-4" d="m226.32,330.72h-68.89l-.3-108.13h68.89l.3,108.13Z"/>
  <path class="cls-10" d="m226.03,222.59h-34.45v108.14h34.45v-108.14Z"/>
  <path class="cls-4" d="m189.33,201.3h-24.33v21.28h24.33v-21.28Z"/>
  <path class="cls-10" d="m189.33,201.3h-5.8v21.28h5.8v-21.28Z"/>
  <path class="cls-6" d="m228.04,221.35h-76.65v1.24h76.65v-1.24Z"/>
  <path class="cls-1" d="m176.56,231.88h-5.83v12.21h5.83v-12.21Z"/>
  <path class="cls-6" d="m191.58,248.88c0,.13-7.71.24-17.22.24s-17.22-.1-17.22-.24,7.71-.24,17.22-.24,17.22.1,17.22.24Z"/>
  <path class="cls-4" d="m211.31,231.88h-5.83v12.21h5.83v-12.21Z"/>
  <path class="cls-6" d="m226.32,248.88c0,.13-7.71.24-17.22.24s-17.22-.1-17.22-.24,7.71-.24,17.22-.24,17.22.1,17.22.24Z"/>
  <path class="cls-4" d="m211.31,256.12h-5.83v12.21h5.83v-12.21Z"/>
  <path class="cls-6" d="m226.32,273.13c0,.13-7.71.24-17.22.24s-17.22-.1-17.22-.24,7.71-.24,17.22-.24,17.22.1,17.22.24Z"/>
  <path class="cls-4" d="m211.31,281.1h-5.83v12.21h5.83v-12.21Z"/>
  <path class="cls-6" d="m226.32,298.1c0,.13-7.71.24-17.22.24s-17.22-.1-17.22-.24,7.71-.24,17.22-.24,17.22.1,17.22.24Z"/>
  <path class="cls-4" d="m211.31,306.08h-5.83v12.21h5.83v-12.21Z"/>
  <path class="cls-6" d="m226.32,323.08c0,.13-7.71.24-17.22.24s-17.22-.1-17.22-.24,7.71-.24,17.22-.24,17.22.1,17.22.24Z"/>
  <path class="cls-1" d="m176.56,256.49h-5.83v12.21h5.83v-12.21Z"/>
  <path class="cls-6" d="m191.58,273.5c0,.13-7.71.24-17.22.24s-17.22-.1-17.22-.24,7.71-.24,17.22-.24,17.22.1,17.22.24Z"/>
  <path class="cls-1" d="m176.56,281.1h-5.83v12.21h5.83v-12.21Z"/>
  <path class="cls-6" d="m191.58,298.11c0,.13-7.71.24-17.22.24s-17.22-.1-17.22-.24,7.71-.24,17.22-.24,17.22.1,17.22.24Z"/>
  <path class="cls-1" d="m176.56,305.73h-5.83v12.21h5.83v-12.21Z"/>
  <path class="cls-6" d="m191.58,322.73c0,.13-7.71.24-17.22.24s-17.22-.1-17.22-.24,7.71-.24,17.22-.24,17.22.1,17.22.24Z"/>
  <path class="cls-4" d="m343.99,63.26c.6-4.36-5.58-7.94-10.24-8.32-2.22-.18-4.52.16-6.62-.57-4.56-1.57-6.38-7.42-10.82-9.28-3.32-1.39-7.15-.15-10.37,1.46-3.22,1.61-6.4,3.64-10.01,3.86-3.13.2-6.53-.95-9.27.57-2.04,1.13-3.11,3.47-4.99,4.85-1.84,1.35-4.24,1.64-6.52,1.75-2.28.13-4.65.15-6.73,1.09-2.08.94-3.8,3.13-3.37,5.36l78.94-.77Z"/>
  <path class="cls-4" d="m242.03,18.28c.4-2.89-3.7-5.26-6.78-5.51-1.47-.12-3,.1-4.39-.38-3.02-1.05-4.22-4.92-7.16-6.15-2.2-.92-4.73-.1-6.87.97-2.13,1.06-4.24,2.41-6.62,2.56-2.08.13-4.33-.63-6.14.38-1.35.75-2.06,2.3-3.3,3.21-1.22.89-2.81,1.08-4.32,1.16-1.51.08-3.07.09-4.45.72-1.38.63-2.52,2.07-2.23,3.55l52.26-.51h0Z"/>
  <path class="cls-4" d="m406.39,24.49c.4-2.89-3.7-5.26-6.78-5.51-1.47-.12-2.99.1-4.39-.38-3.02-1.05-4.22-4.91-7.16-6.15-2.2-.92-4.73-.1-6.87.97-2.13,1.06-4.24,2.41-6.62,2.56-2.08.13-4.33-.63-6.14.38-1.36.75-2.06,2.3-3.3,3.21-1.22.89-2.8,1.08-4.32,1.16-1.51.08-3.07.09-4.45.72-1.38.63-2.52,2.07-2.23,3.55l52.27-.51h0Z"/>
  <path class="cls-4" d="m554.91,59.99c.4-2.89-3.7-5.26-6.78-5.51-1.47-.12-2.99.1-4.39-.38-3.02-1.05-4.22-4.92-7.16-6.15-2.2-.92-4.73-.1-6.87.97-2.13,1.06-4.24,2.41-6.62,2.56-2.08.13-4.33-.63-6.14.38-1.35.75-2.06,2.3-3.3,3.21-1.22.89-2.8,1.08-4.32,1.16-1.51.08-3.07.09-4.45.72-1.38.63-2.52,2.07-2.23,3.55l52.27-.51h0Z"/>
  <path class="cls-4" d="m65.76,49.23c.4-2.89-3.7-5.26-6.78-5.51-1.47-.12-2.99.1-4.39-.38-3.02-1.05-4.22-4.91-7.16-6.15-2.2-.92-4.73-.1-6.87.97-2.13,1.06-4.24,2.41-6.62,2.56-2.08.13-4.33-.63-6.14.38-1.35.75-2.06,2.3-3.3,3.21-1.22.89-2.8,1.08-4.32,1.16-1.51.08-3.07.09-4.45.72-1.38.63-2.52,2.07-2.23,3.55l52.26-.51h0Z"/>
  <path class="cls-13" d="m561,331.02c0,.11-125.6.21-280.49.21s-280.51-.1-280.51-.21,125.57-.2,280.51-.2,280.49.1,280.49.2Z"/>
  <path class="cls-14" d="m482.69,59.48s-2.35-2.51-3.49-1.91c-1.14.6-1.96,2.23-2.41,3.16-.5,1.04.59,1.85,1.04,1.69.45-.17,1.55-1.41,1.55-1.41l2.15,1.74.07,2.93-.13.86-1.89-.49-.39-2.21c-.14-.8-1.14-1.2-1.73-.63-.23.22-.4.57-.44,1.09-.13,1.9.04,5.22,2.21,6.24,2.17,1.02,6.06,2.16,6.06,2.16l1.78,1.83,7.4-1.5-1.43-3.18-.69-9.8s2.27-4.07,2.12-5.43c-.16-1.36-1.1-5.41-1.1-5.41,0,0-1.15-.44-1.39.81-.24,1.26.13,4.62.13,4.62l-1.94,3.27-1.96-10.76c-.15-.83-1.27-1.04-1.69-.31-.19.33-.31.83-.29,1.56.06,2.74,1.11,9.25.79,9.34-.32.09-1.2-.35-1.58-1.68-.34-1.21-2.25-6.45-3.03-8.55-.19-.52-.9-.64-1.23-.19-.42.57-.74,1.59-.3,3.36.54,2.16,1.7,6.48,1.8,7,.1.51,0,1.79,0,1.79v.02Z"/>
  <path class="cls-7" d="m487.62,68.54c-.06.03-.26-.27-.67-.65-.4-.39-1.04-.86-1.85-1.16-.81-.3-1.6-.37-2.17-.34-.57.03-.92.12-.94.06-.02-.04.32-.23.91-.33.59-.1,1.46-.08,2.34.24.87.32,1.54.87,1.92,1.34.38.46.51.83.47.84Z"/>
  <path class="cls-13" d="m468.27,294.65l12.15,18.66,5.32,17.51c.38,1.26,1.77,1.94,3,1.47.7-.26,1.25-.83,1.4-1.55.96-4.44,4.28-24.84,3.64-25.79-1.05-1.57-10.6-17.36-10.6-17.36l-14.93,7.04h0Z"/>
  <path class="cls-2" d="m488.75,332.31l4.26-28.62.5.8c.43.69.6,1.51.48,2.32-.33,2.15-1.4,12.46-3.76,23.91-.15.75-.74,1.33-1.46,1.58h0Z"/>
  <g class="cls-9">
    <path class="cls-1" d="m486.21,303.15c-.28.62.01,1.43.62,1.73.61.3,1.45.01,1.74-.6.29-.61-.03-1.6-.67-1.83s-1.6.16-1.73.83"/>
  </g>
  <path class="cls-1" d="m487.99,321.38c-.08.12-1.12-.61-2.58-.46-1.47.12-2.35,1.02-2.46.92-.05-.04.1-.33.52-.67.4-.34,1.08-.67,1.89-.74.81-.07,1.55.13,2,.38.46.25.67.51.63.56h0Z"/>
  <path class="cls-1" d="m488.2,324.74c-.04.13-1.03-.1-2.19.22-1.17.3-1.91,1-2.01.9-.11-.06.55-1.02,1.89-1.37,1.32-.36,2.39.14,2.32.25Z"/>
  <path class="cls-1" d="m488.5,316.58c-.03.14-1.56-.24-3.41.11-1.85.32-3.15,1.2-3.23,1.07-.1-.08,1.16-1.21,3.14-1.55,1.98-.36,3.55.27,3.49.37Z"/>
  <path class="cls-1" d="m485.29,310.6c.02.14-1.31.35-2.7,1.14-1.41.77-2.28,1.78-2.4,1.68-.11-.06.64-1.28,2.16-2.11,1.51-.84,2.95-.83,2.95-.71h0Z"/>
  <path class="cls-1" d="m483.04,306.63c0,.14-1.44.16-2.85,1.11-1.43.92-2,2.24-2.14,2.17-.05-.02,0-.39.29-.9.28-.52.82-1.17,1.58-1.68.76-.5,1.58-.74,2.17-.8.59-.05.96.03.95.09h0Z"/>
  <path class="cls-13" d="m420.89,176.33c0,.75,5.57,69.68,7.71,74.18,2.13,4.5,44.23,56.01,44.23,56.01l17.56-12.02-37.31-53.7-1.05-50.3-8.65-19.73-22.51,5.57h0Z"/>
  <path class="cls-13" d="m473.56,162.54c.44,1.05,6.24,17.48,6.67,24.45.44,6.98-12.53,130.79-12.53,130.79l-21.43-1.7,5.57-120.07-9.25-25.24,30.97-8.22Z"/>
  <path class="cls-2" d="m449.49,189.24v.24c0,.17.02.41.03.71.04.64.1,1.57.17,2.76.16,2.43.39,5.97.68,10.47.61,9.04,1.48,21.92,2.53,37.39v.05l.03.04c8.71,12.55,19,27.39,30,43.23,2.47,3.56,4.9,7.06,7.29,10.49l.05-.29c-6.12,4.19-12,8.22-17.56,12.03l.27.04c-12.92-15.97-24-29.65-31.85-39.36-3.93-4.83-7.05-8.67-9.21-11.32-1.07-1.31-1.89-2.31-2.46-3.01-.28-.33-.49-.58-.64-.77-.14-.17-.23-.25-.23-.25,0,0,.06.1.2.28.15.19.35.45.62.79.56.7,1.37,1.72,2.42,3.05,2.13,2.66,5.22,6.53,9.11,11.39,7.83,9.73,18.86,23.46,31.73,39.45l.12.15.16-.11c5.56-3.8,11.46-7.83,17.57-12.02l.17-.12-.12-.17c-2.39-3.43-4.82-6.94-7.29-10.5-11-15.83-21.32-30.66-30.04-43.2l.03.1c-1.11-15.46-2.04-28.34-2.69-37.38-.33-4.5-.6-8.04-.78-10.47-.1-1.2-.17-2.12-.22-2.75-.02-.3-.05-.54-.06-.71-.02-.16-.02-.24-.03-.24h.02Z"/>
  <path class="cls-13" d="m450.79,305.75l.44,16.15s-16.38,5.87-16.59,8.86l31.56.27.35-25.19-15.76-.1h0Z"/>
  <path class="cls-6" d="m461,320.62c.61.17,1.02.86.88,1.47-.15.61-.85,1.04-1.46.87-.61-.16-1.14-.97-.92-1.56.21-.59,1.06-1.05,1.62-.75"/>
  <path class="cls-2" d="m466.2,331.02l-.06-2.54-30.23.69s-1.41.6-1.26,1.58l31.55.27Z"/>
  <path class="cls-1" d="m450.73,321.73c0,.15.78.23,1.53.72.77.48,1.15,1.15,1.29,1.09.14-.03-.08-.94-1.01-1.53-.92-.6-1.85-.42-1.82-.28h0Z"/>
  <path class="cls-1" d="m447.4,323.06c-.04.15.63.42,1.15,1.06.54.64.67,1.34.82,1.33.14.02.26-.87-.4-1.67-.65-.8-1.56-.87-1.56-.73h0Z"/>
  <path class="cls-1" d="m445.49,326.98c.14.03.36-.73-.02-1.57-.38-.84-1.11-1.18-1.17-1.05-.09.12.37.58.68,1.27.32.68.36,1.34.51,1.35Z"/>
  <path class="cls-1" d="m451.04,318.04c.06.14.77-.06,1.64,0,.87.05,1.55.35,1.63.21.09-.11-.57-.68-1.59-.75-1.02-.07-1.75.41-1.68.53h0Z"/>
  <path class="cls-13" d="m439.44,51.44c1.72-.21,3.14-1.85,3.1-3.57-.04-1.72-1.54-3.29-3.26-3.42.78-1.31.62-3.11-.39-4.26-1.01-1.15-2.78-1.57-4.2-.98-.42-1.45-1.64-2.64-3.11-3.02-1.47-.39-3.12.04-4.21,1.09-1.96-.99-4.6-.42-5.96,1.31-1.5.08-2.87,1.21-3.22,2.65-.36,1.44.33,3.08,1.61,3.84"/>
  <path class="cls-14" d="m445.6,70.05c-.86-3.77-3.28-11.39-5.55-18.26-2.44-7.38-10.18-11.67-17.79-9.84l-.75.18c-8.03,2.42-10.45,10.56-7.79,18.47l8.18,28.11,19.35-2.12-1.39-5.63s7.54-3.08,5.75-10.89h0Z"/>
  <path class="cls-7" d="m439.91,80.92s-4.93,1.5-10.99-.53c0,0,3.77,5.02,11.42,2.45l-.43-1.92h0Z"/>
  <path class="cls-13" d="m438.35,59.38c.17.58-.2,1.2-.81,1.38-.61.18-1.24-.14-1.4-.72-.17-.58.2-1.2.81-1.38.61-.18,1.24.14,1.39.72Z"/>
  <path class="cls-13" d="m439.3,56.01c-.1.18-1.1-.24-2.31.05-1.2.28-1.94,1.1-2.11.98-.08-.05,0-.35.32-.72.31-.37.89-.79,1.64-.97.75-.17,1.45-.06,1.88.14.44.2.63.42.58.5h0Z"/>
  <path class="cls-13" d="m427.72,62.04c.17.58-.2,1.2-.81,1.38-.61.18-1.24-.14-1.39-.72-.17-.58.2-1.2.81-1.38.61-.18,1.24.14,1.39.72Z"/>
  <path class="cls-13" d="m427.66,59.09c-.09.19-1.12-.16-2.3.23-1.18.36-1.85,1.24-2.02,1.14-.09-.04-.03-.35.26-.74.29-.39.82-.86,1.56-1.09.74-.24,1.44-.17,1.88,0,.45.16.66.38.61.46Z"/>
  <path class="cls-13" d="m434.03,66.89c-.02-.06.7-.38,1.87-.82.3-.1.58-.24.58-.46.02-.24-.19-.54-.43-.86-.47-.67-.96-1.37-1.47-2.11-2.07-3.01-3.64-5.51-3.52-5.59.12-.08,1.89,2.29,3.96,5.3.5.74.98,1.46,1.44,2.13.2.32.5.67.45,1.16-.02.25-.21.46-.4.57-.18.11-.36.15-.51.2-1.21.35-1.96.54-1.98.48h0Z"/>
  <path class="cls-13" d="m426.25,55.14c.02.35-1.08.59-2.24,1.21-1.17.59-2,1.35-2.27,1.13-.13-.11-.06-.46.22-.92.28-.45.8-.98,1.5-1.34.7-.36,1.42-.49,1.94-.45.52.03.84.2.86.36Z"/>
  <path class="cls-13" d="m438.39,52.71c-.19.31-1.16.19-2.26.37-1.12.14-2.01.54-2.27.29-.12-.13-.02-.42.34-.76.36-.33,1-.66,1.76-.77.76-.11,1.47.02,1.9.24.44.21.62.48.54.63Z"/>
  <path class="cls-13" d="m438.43,48.41s-3.25-4.37-5.89-4.95c-3.2-.69-3.68,2.72-6.58,2.62-2.92-.1-5.97-.77-8.25,1.99-2.5,3.02-.67,4.29-.02,7.79,2.63,14.18,1.02,18.76-1.32,12.34-.25-.7-2.42-.79-3.45-3.78-1.35-3.86-2.67-8.63-2.46-11.65.17-2.55,1.14-4.51,3.14-6.89,3.15-3.77,8.42-5.09,12.1-5.59,3.68-.5,11.59,1.94,12.74,8.12h0Z"/>
  <path class="cls-14" d="m416.82,67.87c-.34-1.19-1.62-1.89-2.79-1.49-1.43.49-2.85,1.7-2.03,4.67,1.46,5.28,6.5,2.73,6.46,2.58-.02-.1-1.01-3.56-1.65-5.77Z"/>
  <path class="cls-7" d="m416.76,71.97s-.07.09-.21.2c-.13.11-.38.23-.69.2-.62-.06-1.34-.81-1.62-1.75-.14-.48-.17-.96-.1-1.38.05-.43.23-.77.5-.9.26-.14.51-.03.62.1.11.13.11.24.14.24.01,0,.09-.12-.02-.32-.05-.1-.15-.2-.3-.28-.16-.07-.36-.07-.55,0-.4.14-.67.61-.74,1.09-.1.47-.08,1.02.09,1.56.32,1.05,1.15,1.9,1.98,1.91.4,0,.68-.2.81-.37.13-.17.13-.3.1-.31Z"/>
  <path class="cls-13" d="m414.42,57.54c.81.31,1.66.61,2.52.5.86-.12,1.7-.83,1.64-1.68-.02-.39-.22-.79-.05-1.14.21-.41.78-.43,1.24-.5,1.6-.21,2.92-1.68,2.96-3.28.54.5,1.46.25,1.96-.28.51-.53.74-1.25,1.08-1.9.34-.65.89-1.28,1.62-1.35.41-.04.84.11,1.23-.02.69-.23.83-1.13.77-1.85-.06-.72-.17-1.55.33-2.07.47-.48,1.23-.45,1.9-.51.67-.06,1.47-.41,1.48-1.08,0-.35-.22-.66-.48-.9-1.15-1.1-3.11-1.25-4.41-.32-.95-1.63-2.94-2.6-4.82-2.36-1.89.24-3.55,1.7-4.04,3.52-1.38-.75-3.13-.79-4.54-.09-1.41.69-2.44,2.1-2.67,3.64-1.39-.03-2.75.83-3.32,2.09-.57,1.26-.31,2.83.63,3.85-.83.78-1.43,1.93-1.18,3.03.25,1.11,1.59,1.94,2.59,1.4-.22.96.41,2.04,1.36,2.32.95.28,2.08-.28,2.41-1.21"/>
  <path class="cls-2" d="m429,42.61s.02.03.02.09c0,.06.03.17.03.29,0,.26,0,.65-.14,1.12-.14.46-.4,1.03-.88,1.54-.47.51-1.16.98-2.04,1.15l.06-.14c.28.42.36.98.25,1.49-.1.53-.34,1.03-.6,1.53-.14.24-.24.51-.45.76-.21.24-.47.4-.78.52-.59.22-1.32.2-1.87-.2l.19-.1c.12,1.09-.23,2.29-1.04,3.17-.42.49-1,.86-1.62.99-.62.14-1.24.1-1.82.04l.13-.09c-.13.73-.44,1.4-.87,1.94-.43.54-1.07.95-1.74.95-1.33.04-2.42-.8-2.83-1.75l.13.02c-.55.49-1.21.68-1.77.71-.57.03-1.06-.1-1.42-.26-.36-.17-.6-.36-.75-.5-.14-.15-.21-.24-.21-.24.02-.03.28.36,1,.66.36.14.83.26,1.38.21.54-.04,1.16-.24,1.67-.7l.09-.08.05.11c.4.87,1.43,1.66,2.66,1.61.61,0,1.17-.37,1.58-.88.4-.51.7-1.16.82-1.84l.02-.11h.11c.57.07,1.17.11,1.74-.02.58-.13,1.09-.46,1.5-.92.76-.83,1.08-1.95.98-2.99l-.02-.26.21.16c.48.35,1.12.38,1.66.17.26-.09.51-.25.69-.45.17-.2.29-.46.43-.71.26-.49.49-.98.59-1.46.11-.49.04-.98-.21-1.35l-.07-.12.13-.02c.83-.14,1.51-.58,1.97-1.06.47-.49.74-1.02.89-1.47.29-.92.14-1.48.18-1.48l-.02-.02Z"/>
  <path class="cls-7" d="m430.89,69.33c1.53-.09,3.07.02,4.57.3l.02.03c.08,1.03.05,2.2-.68,2.93-.55.55-1.41.73-2.15.51-.74-.22-1.31-.71-1.61-1.42-.3-.71-.22-1.61-.16-2.36h0Z"/>
  <path class="cls-13" d="m433.96,72.98c-.02-.07-.59.29-1.45-.05-.42-.17-.86-.5-1.14-1.02-.29-.52-.4-1.18-.36-1.88,0-.16.02-.39.05-.48.03-.04-.03,0,.02-.02h.24c.34.02.66.04.99.06.59.02,1.15.04,1.68.06.96.02,1.55,0,1.55-.05s-.59-.14-1.54-.23c-.53-.05-1.09-.09-1.67-.14-.32-.02-.65-.05-.99-.07-.1,0-.16-.02-.28-.02-.13-.02-.36.13-.37.28-.06.24-.06.39-.08.59-.04.75.1,1.5.44,2.08.33.59.88.96,1.36,1.1.48.16.92.1,1.18.02.27-.09.38-.2.37-.22h0Z"/>
  <path class="cls-2" d="m402.59,97.58l-29.99,8.76-9.87-12.86c.06,1.51-12.21-.4-12.21-.4,8.75,20.86,13.52,27.83,14.82,28.43,3.3,1.53,28.25,1.31,30.22.84,1.97-.47,19.98-3.02,19.98-3.02l-3.3-25.05-7.49,2.35c-.75.24-1.48.55-2.17.94h0Z"/>
  <path class="cls-2" d="m475.04,154.52c-1.73-6.49-5.55-21.29-5.55-21.29l-7.87-45.97-17.64.14-1.47-3.08c-.31-.65-1.03-1.02-1.74-.89l-18.7,3.31c-.86.15-1.44.95-1.32,1.8l.35,2.49-14.25,5.25-1.54,20.58,11.46,46.88.71,6.6c.17,1.56.99,2.98,2.27,3.94l2.04,1.53,51.69-11.85,1.28-3.48c.7-1.91.8-4,.28-5.97Z"/>
  <path class="cls-2" d="m420.89,174.71l.48,6.93,55.25-12.79-1.97-8.91-53.76,14.76Z"/>
  <path class="cls-13" d="m469.56,164.3c-.12.02-.07,1.28.1,2.83.17,1.55.4,2.79.52,2.78.12-.02.07-1.28-.1-2.82-.17-1.55-.4-2.79-.52-2.78Z"/>
  <path class="cls-13" d="m460.78,166.32c-.12.02.02,1.3.32,2.85.29,1.55.62,2.79.74,2.77.12-.02-.02-1.3-.32-2.85s-.62-2.79-.74-2.77Z"/>
  <path class="cls-13" d="m451.57,169.02c-.12.02,0,1.24.27,2.71.27,1.47.58,2.65.7,2.64.12-.02,0-1.24-.27-2.71-.27-1.47-.58-2.65-.69-2.64h0Z"/>
  <path class="cls-13" d="m440.06,171.69c-.12.02.04,1.39.36,3.06.31,1.67.66,3,.78,2.98.12-.02-.04-1.39-.36-3.06-.31-1.67-.66-3.01-.78-2.98Z"/>
  <path class="cls-13" d="m429.3,174.14c-.11.03.14,1.31.58,2.86.43,1.55.88,2.78.99,2.75.11-.03-.14-1.31-.58-2.86-.44-1.55-.88-2.78-.99-2.75Z"/>
  <path class="cls-2" d="m461.62,87.25l2,.04c2.42.05,4.8.71,6.89,1.93l17.43,10.1-4.23-25.07,13.75-2.79s8.08,32.6,8.06,37.77c-.05,10.42-8.11,14.01-16.19,11.54-2.41-.73-31.21-13.75-31.21-13.75l3.5-19.76h0Z"/>
  <path class="cls-13" d="m469.1,136.22c.12-.02-1.16-9.78-2.85-21.81-1.69-12.03-3.15-21.77-3.27-21.76-.12.02,1.16,9.78,2.85,21.82,1.69,12.03,3.15,21.77,3.27,21.76h0Z"/>
  <path class="cls-13" d="m456.71,131.62s-.1.1-.26.33c-.18.27-.41.59-.68.98-.62.91-1.46,2.14-2.47,3.63-2.09,3.06-5.04,7.26-8.42,11.8-3.39,4.53-6.58,8.55-8.94,11.43-1.15,1.4-2.08,2.55-2.79,3.4-.3.37-.55.68-.75.93-.17.21-.25.33-.24.35.02.02.12-.09.3-.29.22-.24.48-.53.81-.88.7-.77,1.69-1.9,2.89-3.32,2.41-2.83,5.65-6.82,9.05-11.36,3.39-4.54,6.3-8.77,8.33-11.88,1.01-1.55,1.82-2.82,2.36-3.71.25-.41.45-.75.62-1.02.14-.24.2-.36.19-.37h0Z"/>
  <path class="cls-13" d="m450.67,120.47s-.25.34-.63.99c-.42.72-.97,1.64-1.62,2.76-1.36,2.33-3.26,5.54-5.45,9.03-2.19,3.49-4.24,6.61-5.74,8.85-.71,1.07-1.32,1.97-1.77,2.66-.42.63-.63.99-.61,1.01.02.01.29-.31.74-.91.46-.6,1.11-1.49,1.88-2.59,1.57-2.2,3.67-5.3,5.86-8.8,2.19-3.5,4.06-6.74,5.36-9.11.65-1.19,1.16-2.16,1.5-2.82.34-.68.52-1.05.49-1.07Z"/>
  <path class="cls-13" d="m443.52,87.43c-.03-.06-1.17.5-3.08,1.22-1.91.72-4.61,1.56-7.68,2.05-3.07.5-5.91.55-7.95.46-2.04-.09-3.3-.26-3.31-.19,0,.03.31.09.87.2.56.1,1.39.21,2.42.29,2.05.17,4.92.15,8.03-.35,3.11-.5,5.84-1.39,7.72-2.2.95-.4,1.7-.76,2.2-1.04.51-.28.78-.43.76-.46h.02Z"/>
  <g class="cls-8">
    <path d="m453.83,136.29c-1.42,10.46-8.57,19.98-18.27,24.3l18.27-24.3Z"/>
  </g>
  <path class="cls-13" d="m403.58,107.68c-.12.03,1.28,6.13,3.13,13.62,1.85,7.5,3.43,13.55,3.55,13.53.11-.03-1.28-6.13-3.13-13.62s-3.43-13.55-3.55-13.52h0Z"/>
  <path class="cls-14" d="m359.28,85.08s1.7-.35,2.54,1.1c.84,1.46,1.64,4.78,1.56,6.41,0,0,2.42.42,2.5,1.4.09.98-.51,1.94-2.83,1.91,0,0-1.54,2.91-3.05,1.88-1.51-1.03-1.03-2.24-1.03-2.24,0,0-1.38,2.27-3.51-.64,0,0-.94.73-2,.47-1.04-.25-1.46-.97-1.46-.97,0,0-1.32.72-2.08-.21-.77-.93-3.3-4.79-3.72-6.04-.42-1.25-.03-2.91,1.04-3.58,1.07-.67,2.86-.05,2.86-.05,0,0,1.68-1.75,3.73-.35,0,0,3.01-2.65,5.43.9h0Z"/>
  <path class="cls-7" d="m349.67,88.03c-.12.05.39,1.49,1.09,3.21.35.87.64,1.65.83,2.23.19.57.27.94.33.94.06,0,.08-.39-.04-1.01-.12-.61-.37-1.43-.72-2.31-.71-1.74-1.39-3.09-1.49-3.05h0Z"/>
  <path class="cls-7" d="m353.02,87.22c-.11.03.29,1.79.94,3.93.65,2.14,1.39,3.81,1.5,3.76.11-.04-.45-1.75-1.09-3.89-.65-2.13-1.24-3.84-1.35-3.81h0Z"/>
  <path class="cls-7" d="m357.43,87.26c-.12.05.56,1.86,1.09,4.18.25,1.16.5,2.23.53,2.97.04.76-.22,1.19-.16,1.22.03.04.42-.38.46-1.21.04-.83-.16-1.9-.41-3.08-.54-2.36-1.41-4.13-1.51-4.08Z"/>
  <path class="cls-7" d="m362.46,87.8c-.13.04.44,1.9.67,4.23.1,1.16.08,2.25.02,3-.06.76-.37,1.14-.32,1.18.03.05.47-.31.62-1.13.14-.79.21-1.87.1-3.08-.24-2.42-1.01-4.23-1.09-4.19h0Z"/>
  <path class="cls-13" d="m90.03,205.79s-5.02-5.03-6.45,25.38c-1.35,28.7-3.34,70.09,3.6,87.85.75,1.92,2.08,3.57,3.85,4.65,1.43.88,3.43,1.76,6.02,2.16,6.04.94,29.93.41,29.93.41,0,0,13.56,0,13.76-11.09.17-9.12,0-28.96,0-28.96l-50.71-80.41Z"/>
  <g class="cls-8">
    <path d="m90.03,205.79s-5.02-5.03-6.45,25.38c-1.35,28.7-3.34,70.09,3.6,87.85.75,1.92,2.08,3.57,3.85,4.65,1.43.88,3.43,1.76,6.02,2.16,6.04.94,29.93.41,29.93.41,0,0,13.56,0,13.76-11.09.17-9.12,0-28.96,0-28.96l-50.71-80.41Z"/>
  </g>
  <path class="cls-13" d="m365.96,205.79s-5.01-5.03-6.45,25.38c-1.35,28.7-3.34,70.09,3.6,87.85.75,1.92,2.08,3.57,3.85,4.65,1.43.88,3.43,1.76,6.01,2.16,6.04.94,29.93.41,29.93.41,0,0,13.56,0,13.76-11.09.17-9.12,0-28.96,0-28.96l-50.71-80.41h0Z"/>
  <g class="cls-8">
    <path d="m365.96,205.79s-5.01-5.03-6.45,25.38c-1.35,28.7-3.34,70.09,3.6,87.85.75,1.92,2.08,3.57,3.85,4.65,1.43.88,3.43,1.76,6.01,2.16,6.04.94,29.93.41,29.93.41,0,0,13.56,0,13.76-11.09.17-9.12,0-28.96,0-28.96l-50.71-80.41h0Z"/>
  </g>
  <path class="cls-13" d="m439.72,153.18s-1.52,5.14-4.64,5.67c-3.13.53-27.78,1.28-27.78,1.28l-2.41,4.93h-4.64l-3.38-19.76,2.88.59c.98.2,1.81.86,2.2,1.79.44,1.01,1.39,1.71,2.49,1.82l35.28,3.67h0Z"/>
  <path class="cls-5" d="m438.69,153.95c1.83-.14,3.17-1.79,2.91-3.6-.81-5.64-3.79-16.61-14.76-18.23-9.71-1.44-16.76-1-20.49-.52-1.7.22-2.55,1.76-2.75,3.46-.93,7.76-.18,17.38,2.07,18.56,2.35,1.24,25,.97,33.01.34h0Z"/>
  <path class="cls-13" d="m423.99,132.16s.25.26.63.78c.38.51.9,1.28,1.52,2.25,1.24,1.94,2.8,4.71,4.19,7.92,1.4,3.21,2.36,6.24,2.93,8.46.29,1.11.49,2.01.61,2.64.12.63.17.97.14.98-.03,0-.13-.33-.3-.95-.16-.61-.41-1.51-.73-2.6-.64-2.19-1.64-5.18-3.03-8.37-1.39-3.19-2.9-5.96-4.06-7.92-.58-.98-1.07-1.77-1.41-2.31-.34-.54-.52-.85-.49-.87Z"/>
  <path class="cls-13" d="m434.15,226.39s5.01-5.03,6.45,25.38c1.36,28.7,3.34,70.08-3.6,87.85-.75,1.92-2.08,3.57-3.85,4.65-1.43.88-3.43,1.76-6.01,2.16-6.05.94-29.93.41-29.93.41,0,0-13.55,0-13.76-11.09-.17-9.12,0-28.96,0-28.96l50.71-80.41h0Z"/>
  <path class="cls-2" d="m434.15,226.39s-.07.13-.23.39c-.17.27-.4.65-.71,1.15-.63,1.02-1.55,2.5-2.76,4.43-2.42,3.87-5.96,9.51-10.42,16.62-8.95,14.22-21.6,34.33-36.44,57.92l.03-.1c0,8.64,0,17.7,0,27.09,0,1.17-.05,2.36.15,3.5.17,1.15.54,2.27,1.12,3.29,1.15,2.05,3.14,3.56,5.35,4.49,4.48,1.99,9.58,1.4,14.55,1.58,5.24.05,10.43.06,15.54-.08,2.54-.1,5.1-.13,7.54-.58,1.22-.24,2.41-.62,3.53-1.12,1.12-.51,2.19-1.12,3.07-1.96.88-.83,1.59-1.82,2.09-2.9.26-.54.42-1.12.62-1.69.19-.58.38-1.14.57-1.72.21-.57.35-1.15.49-1.73.14-.58.29-1.16.43-1.74.32-1.15.51-2.32.72-3.48.47-2.31.72-4.64,1.04-6.93.14-1.15.23-2.29.34-3.43.1-1.13.23-2.27.29-3.39.64-9,.73-17.59.67-25.62-.07-8.03-.3-15.51-.56-22.34-.27-6.82-.55-13-.81-18.42-.29-5.41-.73-10.07-1.34-13.84-.62-3.75-1.36-6.68-2.43-8.39-.27-.42-.56-.76-.86-.98-.31-.23-.63-.31-.88-.29-.51.06-.7.31-.7.28,0,0,.04-.05.15-.13.11-.07.29-.17.55-.2.26-.02.6.05.92.28.32.22.62.57.89.99,1.1,1.72,1.88,4.65,2.52,8.4.63,3.78,1.09,8.43,1.41,13.86.29,5.42.59,11.6.87,18.42.28,6.83.53,14.31.61,22.35.07,8.03,0,16.63-.63,25.65-.05,1.12-.18,2.26-.29,3.4-.11,1.14-.2,2.29-.34,3.44-.31,2.3-.57,4.63-1.04,6.95-.21,1.17-.4,2.35-.72,3.5-.14.58-.29,1.16-.43,1.76-.13.59-.29,1.17-.49,1.75-.19.57-.38,1.15-.58,1.73-.2.57-.36,1.16-.63,1.73-.52,1.13-1.27,2.16-2.19,3.03-.92.87-2.04,1.51-3.18,2.03-1.15.53-2.37.9-3.61,1.16-2.51.46-5.06.49-7.61.59-5.12.14-10.31.13-15.56.08-2.5-.04-4.99-.08-7.46-.11-2.49-.06-4.97-.55-7.25-1.5-2.27-.94-4.34-2.51-5.54-4.67-.6-1.06-.97-2.24-1.16-3.43-.2-1.2-.14-2.38-.15-3.56,0-9.39,0-18.46,0-27.1v-.05l.03-.05c14.89-23.57,27.59-43.65,36.58-57.86,4.49-7.08,8.06-12.7,10.51-16.55,1.22-1.91,2.16-3.38,2.8-4.39.32-.49.56-.87.73-1.12.17-.25.25-.38.25-.38h0Z"/>
  <path class="cls-13" d="m67.51,226.39s-5.01-5.03-6.45,25.38c-1.35,28.7-3.34,70.08,3.6,87.85.75,1.92,2.08,3.57,3.85,4.65,1.43.88,3.43,1.76,6.01,2.16,6.04.94,29.93.41,29.93.41,0,0,13.56,0,13.76-11.09.17-9.12,0-28.96,0-28.96l-50.71-80.41h0Z"/>
  <path class="cls-5" d="m438.81,200.18l-11.1-7.24c-2.52-11.26-23.1-34.62-23.1-34.62,0,0-21.42-51.31-39.91-63.41s-108.75-10.58-108.75-10.58l-4.78.07s-95.66-1.59-114.14,10.5c-18.48,12.1-39.91,63.41-39.91,63.41,0,0-20.58,23.36-23.1,34.62l-11.1,7.24c-2.24,1.46-3.56,3.98-3.46,6.65.67,19,4.36,94.45,10.77,102.92,6.15,8.1,64.23,3.81,80.02,3.79,22.65-.04,93.18-.96,93.18-.96l103.65-.25c11.76-1.25,76.42,6.6,84.4-2.57,6.97-8.02,10.1-83.92,10.77-102.92.1-2.67-1.22-5.19-3.46-6.65h.02Z"/>
  <path class="cls-2" d="m359.7,98.36c-.47-.81-1.32-1.32-2.26-1.37l-104.95-4.47-.82-.03-.02.07-107.41,4.43c-.94.04-1.79.56-2.26,1.37l-27.36,47.42c-.93,1.6.21,3.6,2.06,3.65,3,.09,7.46.13,12.64-.08,8.41-.35,75.36-.19,110.69-.07l-.02.07s4.1-.02,10.85-.04c6.75.02,10.85.04,10.85.04l-.02-.07c35.33-.11,102.28-.27,110.69.07,5.45.22,10.09.17,13.1.07,1.65-.05,2.65-1.83,1.83-3.26l-27.59-47.81Z"/>
  <path class="cls-13" d="m61.94,153.18s1.52,5.14,4.64,5.67c3.12.53,27.78,1.28,27.78,1.28l2.41,4.93h4.64l3.38-19.76-2.88.59c-.98.2-1.81.86-2.2,1.79-.44,1.01-1.39,1.71-2.5,1.82l-35.28,3.67h0Z"/>
  <path class="cls-5" d="m124.79,140.42l252.42-.68,2.04,4.98-121.96.79-134.87-.87,2.37-4.23Z"/>
  <g class="cls-3">
    <path d="m124.79,140.42l251.7-.68,2.76,4.98-121.96.79-134.87-.87,2.37-4.23Z"/>
  </g>
  <path class="cls-13" d="m219.38,141.56c0-2.74-1.06-10.47-3.61-12.54-1.97-1.59-6.64-2.07-8.94-2.2h-.22c-1.22.02-9.38.23-11.82,2.2-2.55,2.06-3.62,9.8-3.61,12.54v.08c0,1.7,1.39,3.08,3.1,3.08h22.01c1.71,0,3.11-1.38,3.11-3.08v-.08h0Z"/>
  <g class="cls-8">
    <path d="m219.38,141.56c0-2.74-1.06-10.47-3.61-12.54-1.97-1.59-6.64-2.07-8.94-2.2h-.22c-1.22.02-9.38.23-11.82,2.2-2.55,2.06-3.62,9.8-3.61,12.54v.08c0,1.7,1.39,3.08,3.1,3.08h22.01c1.71,0,3.11-1.38,3.11-3.08v-.08h0Z"/>
  </g>
  <path class="cls-13" d="m208.27,139.55c0-4.48-1.74-17.14-5.92-20.51-3.23-2.6-10.87-3.38-14.64-3.6-.12,0-.24,0-.36,0-2,.02-15.35.38-19.35,3.61-4.18,3.38-5.92,16.04-5.92,20.51v.13c0,2.79,2.27,5.04,5.08,5.04h36.03c2.81,0,5.08-2.26,5.08-5.04v-.13h0Z"/>
  <g class="cls-8">
    <path d="m164.14,270.47s-80.81-10.55-84.1-10.95c-4.99-.6-7.67,2.61-7.67,6.44,0,2.69-.36,12.97-.58,18.82-.13,3.45,1.62,6.71,4.62,8.47,1.73,1.01,4.04,2.05,7.11,2.95,6.8,1.98,47.76,3.86,56.24,4.23.99.05,1.96-.3,2.71-.95,3.06-2.68,11.24-9.98,13.82-13.6,8.44-11.85,7.84-15.42,7.84-15.42h0Zm-41.95,21.94l-39.07-6.29,1.54-21.25,53.07,4.78-15.54,22.75h0Z"/>
  </g>
  <g class="cls-8">
    <path d="m73.59,215.91s-4,12.07,21.43,17.69c25.75,5.69,63.85,16,63.85,16l-20.46-14.49s-58.86-9.75-60.33-18.7c-1.68-10.23,0-21.72,0-21.72l-4.48,21.22Z"/>
  </g>
  <path class="cls-13" d="m172.92,270.1s-.1,0-.28-.05c-.21-.05-.47-.11-.81-.19-.73-.18-1.77-.44-3.09-.77-2.69-.65-6.57-1.61-11.4-2.67-9.65-2.15-23.06-4.78-37.96-7.18-7.45-1.2-14.55-2.31-21.04-3.15-3.24-.44-6.31-.86-9.2-1.25-2.88-.4-5.57-.79-8.03-.72-2.45.05-4.67.62-6.25,1.77-1.59,1.11-2.7,2.42-3.44,3.57-1.47,2.34-1.46,3.96-1.54,3.93,0,0,0-.38.17-1.09.16-.71.51-1.74,1.24-2.92.72-1.18,1.82-2.52,3.44-3.67,1.6-1.2,3.89-1.81,6.37-1.87,2.5-.08,5.2.29,8.07.68,2.88.38,5.97.79,9.21,1.22,6.49.82,13.6,1.91,21.06,3.12,14.9,2.41,28.32,5.07,37.95,7.3,4.82,1.09,8.7,2.1,11.38,2.8,1.32.36,2.35.64,3.07.85.33.09.59.17.79.23.18.05.27.09.27.1h.02Z"/>
  <path class="cls-13" d="m70.36,238.9s-.03-.16-.04-.45c0-.34-.02-.76-.04-1.29-.02-1.12-.03-2.74,0-4.75.05-4,.27-9.54.81-15.63.55-6.09,1.32-11.57,1.97-15.52.33-1.98.63-3.57.85-4.67.11-.51.2-.93.27-1.26.06-.29.1-.44.12-.43.02,0,0,.16-.04.45-.05.34-.11.76-.19,1.27-.18,1.17-.42,2.75-.72,4.68-.59,3.96-1.31,9.43-1.85,15.52-.54,6.07-.81,11.6-.93,15.6-.05,1.96-.1,3.57-.13,4.74-.02.52-.03.95-.04,1.29-.02.29-.02.45-.04.45Z"/>
  <path class="cls-13" d="m88.04,184.53s-.04-.35-.03-.97c0-.31,0-.69.07-1.13.06-.44.08-.94.18-1.49.33-2.2,1.08-5.19,2.11-8.43,1.02-3.23,2.12-6.11,2.96-8.17.42-1.03.78-1.86,1.03-2.42.26-.57.42-.87.44-.86.02,0-.08.34-.29.92-.25.66-.55,1.49-.91,2.46-.77,2.09-1.81,4.97-2.84,8.18-1.02,3.22-1.81,6.19-2.21,8.36-.41,2.17-.43,3.55-.51,3.55Z"/>
  <path class="cls-4" d="m92.84,190.03s-13.25-4.8-14.95,5.41c-1.7,10.21-1.52,20.36.71,23.93,2.23,3.57,22.69,8.43,22.69,8.43l35.39,7.73s2.54.53,1.01-2.34c-1.72-3.2-11.09-23.74-16.51-28.73-10-9.21-28.34-14.44-28.34-14.44h0Z"/>
  <g class="cls-8">
    <path d="m105.91,228.82s.06-24.05-1.72-26.72c-1.78-2.67-22.63-12.26-22.63-12.26,0,0,2.03-1.72,6.2-.93,4.17.79,11.1,2.66,16.85,5.6,5.76,2.93,14.97,7.14,18.41,12,1.5,2.11,4.63,7.16,7.61,12.64,3.88,7.12,7.56,14.74,7.56,15.15,0,.87.21,1.67-3.23.94-7.97-1.69-29.04-6.4-29.04-6.4v-.02Z"/>
  </g>
  <path class="cls-4" d="m117.43,226.65c4.74,0,8.59-3.82,8.59-8.53s-3.85-8.53-8.59-8.53-8.59,3.82-8.59,8.53,3.85,8.53,8.59,8.53Z"/>
  <path class="cls-13" d="m126.02,218.12c-.06,0,0-.76-.35-2.06-.33-1.28-1.2-3.16-3.13-4.6-.96-.71-2.16-1.31-3.55-1.54-1.38-.23-2.93-.18-4.41.38-.75.26-1.46.65-2.12,1.14-.67.48-1.28,1.08-1.77,1.77-1.03,1.36-1.61,3.12-1.62,4.92.02,1.8.59,3.56,1.62,4.92.5.69,1.1,1.29,1.77,1.77.66.49,1.38.88,2.12,1.14,1.48.56,3.03.61,4.41.38,1.39-.24,2.59-.84,3.55-1.55,1.93-1.45,2.8-3.32,3.13-4.6.34-1.3.29-2.07.35-2.06,0,0,.1.76-.19,2.1-.29,1.31-1.13,3.27-3.11,4.79-.98.75-2.23,1.38-3.67,1.65-1.43.25-3.06.22-4.6-.36-.78-.27-1.54-.67-2.23-1.18-.7-.5-1.34-1.12-1.86-1.85-1.08-1.42-1.69-3.26-1.71-5.16.02-1.9.63-3.73,1.71-5.15.52-.72,1.17-1.34,1.86-1.85.69-.51,1.44-.91,2.23-1.18,1.55-.57,3.17-.61,4.6-.35,1.44.27,2.69.9,3.67,1.65,1.98,1.53,2.82,3.48,3.11,4.79.29,1.34.19,2.1.19,2.1Z"/>
  <path class="cls-6" d="m117.43,217.75c3.15,0,5.9,1.74,7.31,4.3.66-1.19,1.03-2.54,1.03-3.99,0-4.58-3.74-8.29-8.35-8.29s-8.35,3.71-8.35,8.29c0,1.45.37,2.81,1.03,3.99,1.42-2.57,4.16-4.3,7.31-4.3h.02Z"/>
  <path class="cls-1" d="m121.14,217.83c0,2.03-1.66,3.67-3.7,3.67s-3.7-1.64-3.7-3.67,1.66-3.68,3.7-3.68,3.7,1.64,3.7,3.68Z"/>
  <path class="cls-13" d="m121.14,217.83s-.03-.33-.19-.88c-.16-.54-.53-1.33-1.36-1.93-.79-.61-2.09-.94-3.34-.46-1.24.43-2.31,1.74-2.3,3.27-.02,1.53,1.05,2.85,2.3,3.27,1.25.46,2.55.13,3.34-.47.82-.6,1.2-1.38,1.36-1.93.16-.55.15-.88.19-.88.02,0,.02.08.03.24s0,.39-.07.68c-.11.57-.47,1.44-1.34,2.12-.83.68-2.26,1.09-3.65.59-1.39-.46-2.6-1.91-2.58-3.63-.02-1.71,1.2-3.18,2.58-3.63,1.4-.5,2.82-.09,3.65.59.86.68,1.22,1.54,1.34,2.12.06.29.08.53.07.68,0,.16-.02.24-.03.24v.02Z"/>
  <path class="cls-1" d="m120.68,212.07c-.15.26-.93.03-2.1-.04-1.16-.09-2.78.04-4.26.82-1.47.79-2.49,2.05-3.07,3.05-.59,1.01-.84,1.77-1.14,1.76-.26,0-.56-.87-.22-2.28.32-1.37,1.41-3.25,3.45-4.34,2.04-1.08,4.23-.93,5.55-.42,1.36.5,1.93,1.24,1.78,1.46Z"/>
  <path class="cls-1" d="m122.82,213.41c-.47.32-.9.51-.98.44-.08-.08.1-.51.41-.98s.78-.72,1.02-.49,0,.71-.46,1.03h0Z"/>
  <path class="cls-13" d="m252.6,191.29s-.11.02-.34.02c-.24,0-.57,0-1,.02-.89,0-2.18.01-3.83.03-3.34,0-8.15.03-14.08.05h-46.44c-9.07-.01-17.71-.03-25.57-.05-3.93,0-7.66-.02-11.15-.03-1.74,0-3.43-.02-5.05-.02-1.61-.1-3.14.35-4.29,1.24-2.27,1.9-4.33,3.61-6.13,5.12-.9.76-1.75,1.46-2.53,2.1-.82.62-1.7,1-2.51,1.2-.82.2-1.58.21-2.21.16-.63-.03-1.17-.06-1.62-.09-.42-.02-.75-.05-.99-.06-.22-.01-.34-.02-.34-.03,0,0,.12,0,.34,0,.24,0,.57,0,1,.02.44.01.98.02,1.62.05.64.04,1.37,0,2.17-.2.79-.21,1.64-.58,2.42-1.2.77-.65,1.6-1.36,2.5-2.12,1.8-1.53,3.84-3.26,6.11-5.18,1.19-.94,2.84-1.42,4.47-1.32h16.21c7.86,0,16.5,0,25.57.02,18.13.05,34.53.09,46.44.11,5.93.03,10.74.06,14.08.08,1.65.01,2.93.03,3.83.04.42,0,.75.02,1,.02.22,0,.34.02.34.02h0Z"/>
  <path class="cls-13" d="m418.66,303.45c-.43-.89-1.33-1.53-3.11-1.33-4.95.56-56.86,1.71-64.01,0-7.15-1.71-30.98-28.57-41.07-30.4-8.46-1.54-49.6-2.35-62.64-1.98-13.05-.38-54.19.45-62.64,1.98-10.08,1.83-33.56,31.32-40.71,33.02-7.15,1.71-59.42-2.07-64.37-2.63-1.79-.2-2.69.43-3.11,1.33-.88,1.85.55,3.98,2.61,4.04,11.05.31,53.75.79,61.73.65,8.38-.15,94.09-1.71,108.45-1.97,21.65.13,95.63.61,103.47.72,9.24.13,51.77.9,62.83.6,2.06-.06,3.49-2.19,2.61-4.04h-.03Z"/>
  <path class="cls-13" d="m233.26,96.04c.43,0,1.71,7.4,7.73,7.26,6.01-.14,20.69,0,20.69,0v-9.25l-28.42,1.99h0Z"/>
  <path class="cls-5" d="m62.98,153.95c-1.83-.14-3.17-1.79-2.91-3.6.81-5.64,3.79-16.61,14.76-18.23,9.71-1.44,16.76-1,20.49-.52,1.7.22,2.55,1.76,2.75,3.46.93,7.76.18,17.38-2.08,18.56-2.35,1.24-25,.97-33.01.34h0Z"/>
  <path class="cls-13" d="m138.9,94.05s-.02.06-.08.19c-.07.14-.16.31-.27.52-.26.49-.62,1.15-1.07,1.99-.96,1.76-2.32,4.23-4,7.29-3.42,6.16-8.13,14.63-13.32,23.97-4.26,7.6-8.2,14.61-11.33,20.2v.03s-.04.02-.04.02c-3.78,2.88-6.89,5.26-9.09,6.93-1.07.8-1.92,1.44-2.52,1.89-.28.2-.49.36-.67.49-.15.11-.23.16-.24.15,0,0,.06-.07.21-.19.17-.13.37-.31.63-.52.59-.47,1.42-1.13,2.46-1.96,2.17-1.7,5.25-4.12,8.99-7.04l-.04.05c3.11-5.59,7.03-12.62,11.26-20.24,5.24-9.32,9.98-17.78,13.44-23.92,1.73-3.03,3.12-5.49,4.11-7.22.48-.83.86-1.48,1.13-1.95.13-.2.22-.37.3-.5.07-.11.11-.17.12-.17v-.02Z"/>
  <path class="cls-13" d="m153.52,89.62c.02.06-.75.31-1.96.76-1.2.46-2.87,1.16-4.44,2.32-1.57,1.17-2.7,2.56-3.49,3.58-.78,1.03-1.23,1.69-1.28,1.66-.04-.02.32-.74,1.05-1.83.73-1.07,1.85-2.53,3.48-3.74,1.62-1.2,3.35-1.87,4.59-2.27,1.25-.39,2.04-.54,2.06-.49h0Z"/>
  <g class="cls-8">
    <path d="m108.75,148.2l-.76.52c-.31-.38,18.3,38.36,27.06,48.58l5.76-4.85c-12.42-11.95-21.7-30.51-32.06-44.25Z"/>
  </g>
  <path class="cls-13" d="m145.66,300.5s.17-.03.44-.21c.28-.17.67-.43,1.16-.83.99-.77,2.39-1.98,4.17-3.58,3.53-3.2,8.54-7.95,14.56-13.99,1.5-1.51,3.07-3.1,4.68-4.78,1.63-1.65,3.17-3.54,5.14-5.14,1.97-1.57,4.28-2.89,6.81-3.8,2.54-.92,5.29-1.46,8.12-1.68,1.42-.1,2.86-.1,4.3-.12,1.45-.02,2.91-.03,4.4-.04,2.96-.03,5.98-.06,9.06-.09,6.16-.05,12.53-.12,19.05-.18,26.11-.21,49.75-.41,66.87-.55,8.55-.05,15.46-.09,20.26-.12,2.39,0,4.24,0,5.51,0h1.43c.33,0,.49.02.49.02,0,0-.17.02-.49.02-.34,0-.82.01-1.43.03-1.28.02-3.13.05-5.51.09-4.8.06-11.72.14-20.26.25-17.13.17-40.76.41-66.87.67-6.53.05-12.9.12-19.05.17-3.07.02-6.1.05-9.06.08-1.48.02-2.95.02-4.4.04-1.45.02-2.88.02-4.28.11-2.81.21-5.52.74-8.02,1.64-2.5.9-4.78,2.18-6.73,3.73-1.94,1.56-3.49,3.44-5.13,5.09-1.62,1.68-3.19,3.26-4.7,4.77-6.04,6.02-11.08,10.74-14.66,13.91-1.79,1.58-3.21,2.77-4.22,3.52-.5.38-.9.65-1.19.8-.29.16-.46.17-.46.17h0Z"/>
  <g class="cls-8">
    <path class="cls-1" d="m102.99,253.58c-2.45-2.41-4.92-4.83-7.83-6.66-2.91-1.83-7.09-3.97-9.73-2.27-1.34,1.45-2.42,3.12-3.18,4.93-.26.61-.48,1.34-.19,1.94.37.75,1.33.94,2.16,1.04,6.06.76,12.12,1.51,18.19,2.27.35.05.79.05.96-.26.18-.33-.11-.72-.38-.99Z"/>
  </g>
  <g class="cls-8">
    <path d="m173.86,242.15c46.41,12.28,95.44,9.19,143.15,3.72,7.37-.84,15.38-2.06,20.4-7.48"/>
  </g>
  <path class="cls-13" d="m346.83,199.65c-18.13-2.54-56.23-3.81-94.06-3.79-37.83-.02-75.94,1.24-94.06,3.79-5.68.79-9.38,6.4-7.76,11.87.02.06.04.13.06.2,1.98,6.47,9.8,27.11,22.25,30.2,5.78,1.43,38.32,2.81,73.05,3.09v.05c2.15,0,4.31,0,6.46-.02,2.15,0,4.31.02,6.46.02v-.05c34.72-.28,67.28-1.66,73.05-3.09,12.45-3.09,20.27-23.73,22.25-30.2.02-.06.04-.13.05-.2,1.62-5.47-2.08-11.07-7.76-11.87Z"/>
  <path class="cls-13" d="m351.42,239.17s-.16.1-.48.26c-.33.17-.81.41-1.42.73-.63.32-1.4.71-2.32,1.17-.46.23-.95.49-1.49.73-.54.24-1.12.5-1.73.76-4.84,2.24-12.09,5.02-21.33,7.46-9.25,2.38-20.49,4.41-33.08,5.47-12.59,1.16-26.49,1.41-41.06,1.35-14.58-.07-28.48-.72-41.02-2.38-12.53-1.61-23.66-4.22-32.73-7.24-9.08-2.98-16.08-6.33-20.78-8.85-1.19-.61-2.2-1.22-3.1-1.73-.9-.5-1.63-.96-2.23-1.33-.59-.37-1.04-.65-1.36-.84-.3-.19-.45-.3-.45-.3,0,0,.17.09.48.27.32.19.78.46,1.38.81.6.36,1.35.8,2.25,1.3.9.49,1.92,1.09,3.11,1.69,4.71,2.48,11.72,5.78,20.8,8.72,9.06,2.97,20.17,5.55,32.69,7.14,12.52,1.63,26.4,2.27,40.98,2.34,14.56.06,28.46-.18,41.02-1.31,12.57-1.05,23.8-3.04,33.05-5.38,9.24-2.4,16.48-5.13,21.33-7.32.61-.26,1.19-.51,1.74-.74.54-.24,1.03-.5,1.49-.72.92-.45,1.7-.83,2.34-1.13.63-.3,1.1-.53,1.44-.69.33-.16.5-.22.5-.22l-.02-.02Z"/>
  <path class="cls-2" d="m353.65,209.71c0,.11-45.25.2-101.08.2s-101.08-.09-101.08-.2,45.24-.21,101.08-.21,101.08.09,101.08.21Z"/>
  <path class="cls-2" d="m353.65,203.58c0,.11-45.25.2-101.08.2s-101.08-.09-101.08-.2,45.24-.21,101.08-.21,101.08.1,101.08.21Z"/>
  <path class="cls-2" d="m325.04,197.47c0,.11-32.4.21-72.35.21s-72.36-.1-72.36-.21,32.39-.2,72.36-.2,72.35.1,72.35.2Z"/>
  <path class="cls-2" d="m353.65,215.91c0,.11-45.25.21-101.08.21s-101.08-.1-101.08-.21,45.24-.21,101.08-.21,101.08.1,101.08.21Z"/>
  <path class="cls-2" d="m349.16,222.1c0,.11-43.46.2-97.05.2s-97.06-.09-97.06-.2,43.45-.21,97.06-.21,97.05.09,97.05.21Z"/>
  <path class="cls-2" d="m347.2,228.3c0,.11-42.28.21-94.43.21s-94.44-.1-94.44-.21,42.28-.21,94.44-.21,94.43.1,94.43.21Z"/>
  <path class="cls-2" d="m342.32,234.5c0,.11-40.1.21-89.56.21s-89.56-.09-89.56-.21,40.1-.2,89.56-.2,89.56.09,89.56.2Z"/>
  <path class="cls-2" d="m336.25,240.7c0,.11-37.16.2-82.98.2s-82.99-.09-82.99-.2,37.15-.21,82.99-.21,82.98.1,82.98.21Z"/>
  <path class="cls-1" d="m98.35,304.94s0,.04.02.05c.39,1.34-.63,2.83-2.03,2.79l-13.17-.22c-1.03-.02-1.89-1.04-2.01-2.05l-.09-.72c-.16-1.29,1.05-2.47,2.35-2.38l13.06.95c.87.06,1.64.73,1.88,1.57h0Z"/>
  <path class="cls-2" d="m344.03,297.32c0,.11-42.46.21-94.83.21s-94.84-.1-94.84-.21,42.46-.2,94.84-.2,94.83.1,94.83.2Z"/>
  <path class="cls-2" d="m196.16,304.19h-5.56l-.4-6.87h6.38l-.42,6.87Z"/>
  <path class="cls-2" d="m248.19,304.19h-5.56l-.4-6.87h6.38l-.42,6.87Z"/>
  <path class="cls-2" d="m300.21,304.19h-5.56l-.4-6.87h6.38l-.42,6.87Z"/>
  <path class="cls-2" d="m341.09,294.84c-10.06-8.61-23.62-21.85-30.59-23.12-8.46-1.54-49.6-2.35-62.64-1.98-13.05-.38-54.19.45-62.64,1.98-6.49,1.18-18.52,13.81-28.18,23.12h184.07-.02Z"/>
  <path class="cls-13" d="m73.34,290.33s.14-.14.44-.39c.32-.27.76-.63,1.32-1.08,1.19-.95,2.87-2.31,4.97-4.01l.04-.03h.06c6.53.8,16.36,2,27.36,3.34,5.35.68,10.43,1.31,14.95,1.88h.04l.03.02c5.47,2.98,10.1,5.52,13.4,7.32,1.6.89,2.88,1.61,3.79,2.11.41.24.75.42,1,.57.22.13.34.2.33.21,0,0-.13-.05-.36-.16-.26-.13-.6-.31-1.03-.52-.93-.49-2.22-1.16-3.84-2.01-3.32-1.77-7.98-4.26-13.47-7.19l.06.02c-4.52-.56-9.6-1.19-14.95-1.84-10.99-1.4-20.82-2.65-27.34-3.48l.1-.03c-2.13,1.65-3.83,2.97-5.04,3.91-.57.43-1.02.77-1.35,1.03-.31.23-.48.35-.48.34h0Z"/>
  <path class="cls-13" d="m141.05,275.31s2.69-4.52,0-5.66c-3.09-1.31-54.68-7.45-56.78-7.64-4.18-.37-5.7,1.51-6.69,6.39-.98,4.88-3.15,16.98.98,20.5s10.62,5.08,23.39,5.85c12.78.78,19.5,1.21,25.79-2.3,6.29-3.52,13.3-17.15,13.3-17.15h0Z"/>
  <path class="cls-13" d="m138.41,235.1c-.14.06-.86-1.27-2.11-3.68-1.25-2.42-3.03-5.93-5.33-10.19-1.17-2.12-2.45-4.45-3.93-6.88-1.48-2.42-3.11-5-5.07-7.45-1.01-1.22-2.03-2.37-3.3-3.41-1.26-1.05-2.63-1.98-4.12-2.82-1.49-.85-3.08-1.67-4.68-2.52-1.6-.84-3.23-1.68-4.89-2.49-3.32-1.63-6.62-3.04-9.92-4.08-1.65-.52-3.29-.94-4.91-1.28-1.62-.35-3.19-.59-4.69-.54-1.48.06-2.88.43-3.95,1.19-1.06.76-1.81,1.9-2.31,3.14-.51,1.24-.82,2.55-1.12,3.82-.28,1.28-.56,2.55-.85,3.73-1.13,4.71-2.05,8.52-2.69,11.19-.63,2.64-.99,4.1-1.14,4.08-.13-.02-.05-1.53.35-4.23.39-2.7,1.1-6.58,2.06-11.35.23-1.2.47-2.44.71-3.74.26-1.31.54-2.71,1.09-4.14.53-1.42,1.41-2.9,2.82-3.97,1.42-1.05,3.2-1.53,4.94-1.62,1.74-.09,3.49.17,5.17.51,1.7.34,3.41.76,5.12,1.29,3.43,1.06,6.84,2.5,10.22,4.16,1.69.83,3.34,1.68,4.94,2.53,1.6.86,3.19,1.68,4.75,2.58,1.55.9,3.04,1.93,4.36,3.06,1.34,1.11,2.51,2.46,3.53,3.73,2.02,2.61,3.61,5.26,5.05,7.76,1.44,2.5,2.65,4.89,3.75,7.07,2.15,4.38,3.74,8,4.77,10.53,1.03,2.53,1.51,3.96,1.38,4.01h.02Z"/>
  <path class="cls-6" d="m91.85,209.31c4.02,0,7.51,2.21,9.32,5.48.84-1.51,1.32-3.24,1.32-5.08,0-5.83-4.76-10.56-10.63-10.56s-10.63,4.73-10.63,10.56c0,1.84.48,3.57,1.32,5.08,1.81-3.27,5.3-5.48,9.32-5.48Z"/>
  <path class="cls-1" d="m91.85,213.91c2.53,0,4.58-2.04,4.58-4.55s-2.05-4.55-4.58-4.55-4.58,2.04-4.58,4.55,2.05,4.55,4.58,4.55Z"/>
  <path class="cls-13" d="m96.43,209.36s-.03-.41-.22-1.09c-.19-.68-.66-1.66-1.68-2.41-.99-.75-2.61-1.18-4.18-.6-1.55.54-2.9,2.18-2.88,4.1-.02,1.92,1.32,3.57,2.88,4.1,1.57.58,3.19.16,4.18-.6,1.02-.76,1.49-1.74,1.68-2.41.19-.68.18-1.09.22-1.09.02,0,.02.1.02.29s-.02.48-.1.83c-.15.71-.59,1.77-1.66,2.6-1.03.83-2.77,1.33-4.48.72-.85-.29-1.65-.86-2.23-1.64-.59-.78-.93-1.78-.93-2.81,0-1.03.34-2.03.93-2.81.58-.79,1.39-1.35,2.23-1.64,1.71-.61,3.45-.12,4.48.72,1.07.83,1.51,1.9,1.66,2.6.08.36.1.65.1.84,0,.19-.02.29-.02.29h0Z"/>
  <path class="cls-13" d="m102.49,209.71c-.06,0,0-.95-.41-2.56-.41-1.58-1.47-3.92-3.87-5.72-1.19-.88-2.69-1.63-4.41-1.93-1.71-.29-3.64-.23-5.49.46-.93.32-1.82.8-2.64,1.42-.83.6-1.58,1.34-2.2,2.2-1.28,1.7-2,3.87-2.03,6.12.02,2.24.74,4.43,2.03,6.12.62.86,1.37,1.61,2.2,2.2.82.61,1.71,1.09,2.64,1.42,1.84.7,3.77.76,5.49.46,1.73-.3,3.22-1.05,4.41-1.93,2.4-1.8,3.47-4.13,3.87-5.72.41-1.61.35-2.57.41-2.56.02,0,.02.23,0,.68,0,.22,0,.5-.06.82-.04.32-.08.69-.2,1.1-.37,1.62-1.41,4.03-3.86,5.91-1.21.92-2.75,1.71-4.52,2.03-1.77.31-3.77.27-5.68-.44-.96-.33-1.89-.83-2.74-1.46-.86-.62-1.65-1.38-2.3-2.28-1.34-1.75-2.09-4.03-2.12-6.36.02-2.34.78-4.6,2.12-6.36.65-.89,1.43-1.66,2.3-2.28.86-.63,1.78-1.12,2.74-1.46,1.91-.71,3.91-.76,5.68-.44,1.78.32,3.32,1.11,4.52,2.03,2.45,1.88,3.49,4.29,3.86,5.91.12.41.16.78.2,1.1.06.32.06.6.06.82,0,.44,0,.68,0,.68Z"/>
  <path class="cls-1" d="m95.86,202.21c-.16.26-1.09-.08-2.57-.22-1.46-.16-3.53-.03-5.43.97-1.89,1.01-3.15,2.64-3.83,3.93-.71,1.3-.94,2.26-1.24,2.23-.25,0-.56-1.07-.11-2.76.42-1.65,1.77-3.91,4.23-5.22,2.46-1.3,5.1-1.15,6.72-.57,1.66.57,2.38,1.42,2.24,1.64h0Z"/>
  <path class="cls-1" d="m98.52,203.88c-.47.32-.93.48-1.04.37-.11-.11.03-.57.34-1.05.31-.47.82-.69,1.1-.43.28.27.07.78-.4,1.1h0Z"/>
  <path class="cls-13" d="m158.87,249.59c-.14.55-14.36-2.55-31.75-6.91-17.4-4.37-31.39-8.35-31.25-8.9.14-.55,14.36,2.54,31.75,6.91,17.4,4.37,31.39,8.35,31.25,8.9h0Z"/>
  <path class="cls-13" d="m75.06,191.8s0-.09,0-.24c.02-.16.06-.4.12-.71.14-.61.4-1.52.97-2.58.58-1.05,1.54-2.24,3.03-3.13.36-.23.78-.39,1.2-.6.44-.13.88-.32,1.36-.42.48-.09.97-.23,1.49-.24.51-.04,1.05-.02,1.59.02,2.16.17,4.47.69,6.91,1.34,2.44.65,5.01,1.46,7.71,2.38,5.36,1.86,11.19,4.08,17.15,6.82.74.35,1.47.71,2.19,1.09.73.38,1.39.87,2.02,1.36,1.26,1,2.39,2.11,3.37,3.32,1.84,2.5,3.46,4.96,5.05,7.3,3.15,4.69,5.85,9,8.05,12.67,2.19,3.67,3.87,6.69,5,8.8.57,1.05,1,1.87,1.28,2.43.13.27.24.47.32.64.07.14.1.22.1.22,0,0-.06-.06-.13-.21-.1-.16-.21-.36-.36-.62-.32-.58-.78-1.38-1.35-2.39-1.17-2.08-2.89-5.08-5.11-8.72-2.22-3.64-4.95-7.93-8.11-12.61-1.58-2.32-3.24-4.82-5.05-7.26-.96-1.18-2.07-2.27-3.31-3.25-.63-.48-1.26-.95-1.97-1.32-.71-.38-1.43-.73-2.17-1.08-5.93-2.73-11.76-4.97-17.1-6.84-2.68-.92-5.24-1.74-7.67-2.4-2.42-.65-4.72-1.19-6.85-1.38-.53-.05-1.05-.06-1.54-.03-.5,0-.98.14-1.45.22-.47.09-.9.27-1.33.39-.4.2-.82.35-1.17.57-1.46.85-2.42,2-3,3.01-.59,1.03-.87,1.92-1.04,2.52-.08.3-.13.53-.16.69-.03.16-.05.24-.06.24h0Z"/>
  <path class="cls-13" d="m77.67,132.16s-.15.32-.49.87c-.34.54-.82,1.33-1.41,2.31-1.16,1.96-2.67,4.74-4.06,7.92-1.39,3.19-2.39,6.18-3.03,8.37-.32,1.09-.57,1.98-.73,2.6-.17.61-.27.95-.3.95s.02-.35.14-.98c.11-.63.32-1.54.61-2.64.57-2.22,1.54-5.24,2.93-8.46,1.4-3.21,2.96-5.98,4.19-7.92.62-.97,1.14-1.73,1.52-2.25.38-.52.6-.79.63-.78Z"/>
  <g class="cls-8">
    <path class="cls-1" d="m71.76,196.26c-.78.26-5.09,2.92-6.91,3.93-1.82,1.01-3.41,2.61-3.95,4.62-.52,2,.06,4.11.63,6.09,1.88,6.49,4.06,18.16,5.93,24.64,1.47-11.77,3.07-31.82,4.29-39.3"/>
  </g>
  <path class="cls-2" d="m130.76,289.64c-.02.11-12.26-1.48-27.36-3.56-15.1-2.08-27.33-3.85-27.31-3.96.02-.11,12.26,1.48,27.36,3.56,15.09,2.08,27.32,3.85,27.31,3.96Z"/>
  <path class="cls-2" d="m126.86,292.62s-.18,0-.51-.03c-.38-.04-.86-.09-1.47-.16-1.32-.16-3.15-.38-5.4-.64-4.6-.54-10.87-1.29-17.79-2.11-6.96-.82-13.24-1.6-17.79-2.23-2.27-.32-4.11-.57-5.38-.78-.6-.09-1.09-.17-1.46-.24-.33-.06-.51-.09-.51-.11s.18,0,.51.03c.38.04.86.1,1.47.16,1.32.16,3.15.38,5.4.65,4.6.54,10.87,1.29,17.79,2.11,6.95.82,13.24,1.61,17.79,2.23,2.27.32,4.11.57,5.38.78.6.1,1.09.17,1.46.24.33.06.51.1.51.11Z"/>
  <path class="cls-2" d="m118.29,294.84c.04.1-2-.06-5.24-.38-3.24-.32-7.72-.82-12.64-1.39-4.94-.57-9.4-1.12-12.63-1.54-1.56-.21-2.85-.39-3.82-.52-.9-.13-1.39-.22-1.39-.24,0-.03.51,0,1.41.09.97.09,2.27.23,3.83.39,3.3.37,7.74.87,12.64,1.42,4.9.58,9.33,1.12,12.64,1.51,1.57.2,2.85.36,3.83.48.9.12,1.42.19,1.38.19h0Z"/>
  <path class="cls-2" d="m133.62,286.25c-.02.11-12.91-1.48-28.79-3.56-15.89-2.08-28.75-3.85-28.74-3.96.02-.11,12.91,1.48,28.79,3.56,15.89,2.08,28.75,3.85,28.74,3.96h0Z"/>
  <path class="cls-2" d="m135.85,283.11c-.02.11-13.36-1.54-29.8-3.68-16.45-2.15-29.77-3.98-29.76-4.09.02-.11,13.36,1.53,29.81,3.69,16.45,2.15,29.76,3.98,29.75,4.09h0Z"/>
  <path class="cls-2" d="m138.37,279.39c-.01.11-13.74-1.59-30.64-3.79-16.91-2.21-30.6-4.09-30.6-4.2.02-.11,13.74,1.59,30.64,3.79,16.91,2.21,30.6,4.09,30.59,4.2h0Z"/>
  <path class="cls-2" d="m140.29,275.6c-.02.11-13.98-1.62-31.19-3.86-17.22-2.25-31.15-4.16-31.14-4.27.02-.11,13.98,1.62,31.19,3.87,17.21,2.25,31.15,4.16,31.14,4.27h0Z"/>
  <path class="cls-2" d="m142.24,271.81c-.02.11-14.1-1.64-31.44-3.9-17.35-2.27-31.4-4.19-31.39-4.3.02-.11,14.09,1.64,31.44,3.9,17.35,2.27,31.4,4.19,31.39,4.3h0Z"/>
  <path class="cls-2" d="m96.8,263.16c.11.02-1.25,6.84-3.05,15.22s-3.34,15.15-3.45,15.13c-.11-.02,1.25-6.84,3.05-15.22,1.8-8.38,3.34-15.15,3.45-15.13Z"/>
  <path class="cls-2" d="m91.62,262.3c.11.02-1.25,6.84-3.05,15.22s-3.34,15.15-3.45,15.13c-.11-.02,1.25-6.84,3.05-15.22s3.34-15.15,3.45-15.13Z"/>
  <path class="cls-2" d="m86.43,261.43c.11.02-1.17,6.47-2.88,14.4-1.7,7.93-3.17,14.34-3.28,14.31-.11-.02,1.17-6.47,2.88-14.4,1.7-7.92,3.17-14.34,3.28-14.31Z"/>
  <path class="cls-2" d="m80.81,262.61s0,.32-.1.87c-.12.64-.25,1.42-.42,2.34-.37,2.07-.86,4.74-1.39,7.7-.53,3.01-1.08,5.74-1.51,7.7-.22.98-.4,1.77-.55,2.31s-.23.84-.26.83c-.03,0,0-.32.1-.87.12-.64.25-1.42.42-2.34.37-2.07.86-4.75,1.39-7.7.53-3.01,1.07-5.74,1.51-7.69.22-.98.4-1.77.55-2.31.14-.54.23-.84.26-.83h0Z"/>
  <path class="cls-2" d="m102.79,264.22c.11.02-1.2,6.6-2.94,14.69-1.74,8.09-3.23,14.63-3.34,14.6-.11-.02,1.2-6.6,2.94-14.69,1.73-8.09,3.23-14.63,3.34-14.6Z"/>
  <path class="cls-2" d="m108.76,265.42c.11.02-1.2,6.62-2.95,14.72-1.74,8.11-3.24,14.67-3.35,14.64-.11-.02,1.2-6.62,2.95-14.73,1.74-8.1,3.24-14.67,3.35-14.64h0Z"/>
  <path class="cls-2" d="m114.91,265.74c.11.02-1.2,6.56-2.92,14.6-1.73,8.04-3.21,14.53-3.32,14.51-.11-.02,1.2-6.55,2.92-14.6,1.72-8.03,3.21-14.53,3.32-14.51Z"/>
  <path class="cls-2" d="m120.96,266.53c.11.02-1.19,6.52-2.9,14.52-1.71,7.99-3.19,14.45-3.3,14.43-.11-.02,1.19-6.52,2.9-14.52,1.71-7.99,3.19-14.45,3.3-14.43Z"/>
  <path class="cls-2" d="m126.93,267.7c.11.02-1.1,6.11-2.7,13.58-1.6,7.48-2.99,13.52-3.11,13.5-.11-.02,1.1-6.11,2.7-13.58,1.6-7.48,2.99-13.52,3.11-13.49Z"/>
  <path class="cls-2" d="m133.04,268.21c.11.02-1.01,5.7-2.51,12.69-1.5,6.99-2.8,12.64-2.92,12.61-.11-.02,1.01-5.71,2.51-12.7,1.5-6.99,2.81-12.64,2.92-12.61h0Z"/>
  <path class="cls-2" d="m139.06,269.18c.11.02-.51,3.38-1.4,7.51-.89,4.12-1.7,7.45-1.81,7.43-.11-.02.51-3.38,1.4-7.51.89-4.12,1.7-7.45,1.81-7.43Z"/>
  <path class="cls-13" d="m336.53,291.73c0,.11-39.37.21-87.92.21s-87.93-.09-87.93-.21,39.36-.2,87.93-.2,87.92.09,87.92.2Z"/>
  <path class="cls-13" d="m333.08,287.78c0,.11-37.68.2-84.14.2s-84.14-.09-84.14-.2,37.67-.2,84.14-.2,84.14.09,84.14.2Z"/>
  <path class="cls-13" d="m327.85,283.73c0,.11-35.64.2-79.58.2s-79.59-.1-79.59-.2,35.63-.21,79.59-.21,79.58.1,79.58.21Z"/>
  <path class="cls-13" d="m324.36,279.69c0,.11-33.94.2-75.8.2s-75.81-.09-75.81-.2,33.93-.21,75.81-.21,75.8.09,75.8.21Z"/>
  <path class="cls-13" d="m318.54,275.84c0,.11-31.47.2-70.28.2s-70.29-.09-70.29-.2,31.46-.21,70.29-.21,70.28.1,70.28.21Z"/>
  <path class="cls-13" d="m311.95,271.99c0,.11-28.43.21-63.49.21s-63.5-.1-63.5-.21,28.43-.2,63.5-.2,63.49.09,63.49.2Z"/>
  <g class="cls-8">
    <path d="m261.68,149.35l-147.26-.23s6.1,7.24,17.32,7.18c10.24-.05,109.85,0,127.33,0h2.61c16.14,0,101.86-.05,110.72,0,9.78.06,14.58-6.95,14.58-6.95h-125.3Z"/>
  </g>
  <path class="cls-13" d="m387.51,146.23l-27.86-47.98c-.44-.75-1.23-1.23-2.1-1.27l-95.86-4.08-9.2-.39c-1.1-.05-2.2-.05-3.3,0l-9.2.39-95.86,4.08c-.87.04-1.66.51-2.1,1.27l-27.86,47.98c-.89,1.54.05,3.5,1.83,3.77.4.05.82.12,1.27.16,2.43.27,99.68.1,133.57.02,33.9.07,131.15.24,133.57-.02.44-.05.87-.1,1.27-.16,1.77-.27,2.73-2.22,1.83-3.77h0Zm-12.83-2.01l-123.84.83-123.84-.83c-1.96-.02-3.17-2.12-2.19-3.79,5.34-9.18,18.75-32.13,20.9-34.79,3.9-4.81,64.19-5.44,96.26-5.44.19.05.39.07.59.07,1.88-.02,4.71-.03,8.28-.05,3.57.02,6.4.03,8.28.05.21,0,.4-.02.59-.07,32.07,0,92.37.63,96.26,5.44,2.15,2.65,15.56,25.61,20.9,34.79.98,1.68-.24,3.78-2.19,3.79Z"/>
  <path class="cls-13" d="m282.28,141.56c0-2.74,1.06-10.47,3.61-12.54,1.97-1.59,6.64-2.07,8.95-2.2h.22c1.22.02,9.38.23,11.82,2.2,2.55,2.06,3.62,9.8,3.61,12.54v.08c0,1.7-1.39,3.08-3.11,3.08h-22.01c-1.71,0-3.11-1.38-3.11-3.08v-.08h0Z"/>
  <g class="cls-8">
    <path d="m282.28,141.56c0-2.74,1.06-10.47,3.61-12.54,1.97-1.59,6.64-2.07,8.95-2.2h.22c1.22.02,9.38.23,11.82,2.2,2.55,2.06,3.62,9.8,3.61,12.54v.08c0,1.7-1.39,3.08-3.11,3.08h-22.01c-1.71,0-3.11-1.38-3.11-3.08v-.08h0Z"/>
  </g>
  <path class="cls-13" d="m293.39,139.55c0-4.48,1.73-17.14,5.92-20.51,3.23-2.6,10.87-3.38,14.64-3.6.12,0,.24,0,.36,0,2,.02,15.35.38,19.36,3.61,4.18,3.38,5.92,16.04,5.92,20.51v.13c0,2.79-2.27,5.04-5.08,5.04h-36.03c-2.8,0-5.08-2.26-5.08-5.04v-.13h0Z"/>
  <g class="cls-8">
    <path d="m337.53,270.47s-.59,3.58,7.84,15.42c2.58,3.62,10.76,10.91,13.82,13.6.74.65,1.71.99,2.71.95,8.49-.37,49.44-2.25,56.24-4.23,3.07-.9,5.39-1.94,7.11-2.95,2.99-1.76,4.74-5.02,4.62-8.47-.21-5.85-.58-16.13-.58-18.82,0-3.82-2.68-7.04-7.67-6.44-3.29.39-84.1,10.95-84.1,10.95h0Zm26.41-.82l53.07-4.78,1.54,21.25-39.07,6.29-15.54-22.75h0Z"/>
  </g>
  <g class="cls-8">
    <path d="m428.08,215.91s4,12.07-21.43,17.69c-25.75,5.69-63.85,16-63.85,16l20.46-14.49s58.87-9.75,60.33-18.7c1.68-10.23,0-21.72,0-21.72l4.48,21.22Z"/>
  </g>
  <path class="cls-13" d="m328.74,270.1s.09-.04.27-.1c.2-.05.46-.13.79-.23.73-.2,1.76-.49,3.07-.85,2.68-.7,6.55-1.7,11.38-2.8,9.64-2.23,23.06-4.89,37.95-7.3,7.46-1.2,14.56-2.3,21.06-3.12,3.24-.42,6.32-.83,9.21-1.22,2.88-.38,5.58-.76,8.07-.68,2.48.07,4.78.68,6.37,1.87,1.62,1.15,2.72,2.49,3.44,3.67.73,1.18,1.08,2.21,1.24,2.92.17.71.17,1.09.17,1.09-.08.03-.06-1.6-1.54-3.93-.73-1.15-1.84-2.45-3.44-3.57-1.58-1.16-3.8-1.72-6.25-1.77-2.46-.06-5.15.32-8.03.72-2.88.39-5.96.81-9.2,1.25-6.48.83-13.59,1.94-21.04,3.15-14.89,2.41-28.31,5.03-37.96,7.18-4.82,1.06-8.71,2.02-11.4,2.67-1.32.33-2.36.59-3.09.77-.34.08-.6.14-.81.19-.18.04-.28.05-.28.05h.02Z"/>
  <path class="cls-13" d="m431.31,238.9s-.03-.16-.04-.45c0-.34-.02-.76-.04-1.29-.03-1.17-.07-2.78-.13-4.74-.12-4-.39-9.51-.93-15.6-.55-6.08-1.27-11.56-1.85-15.52-.29-1.94-.54-3.52-.72-4.68-.08-.52-.14-.94-.19-1.27-.04-.29-.06-.45-.04-.45s.06.15.12.43c.07.33.16.75.27,1.26.22,1.09.51,2.69.85,4.67.67,3.95,1.43,9.43,1.97,15.52.54,6.09.76,11.62.81,15.63.02,2,.02,3.62,0,4.75-.02.52-.03.95-.04,1.29-.01.29-.02.45-.04.45Z"/>
  <path class="cls-13" d="m413.62,184.53c-.08,0-.1-1.37-.51-3.55-.4-2.17-1.19-5.13-2.21-8.36-1.02-3.23-2.07-6.11-2.84-8.18-.36-.98-.67-1.8-.91-2.46-.21-.58-.32-.91-.29-.92.02,0,.18.3.44.86.25.57.62,1.39,1.03,2.42.84,2.06,1.93,4.93,2.96,8.17,1.03,3.23,1.77,6.22,2.11,8.43.1.54.13,1.06.18,1.49.06.44.07.82.07,1.13,0,.62,0,.97-.03.97Z"/>
  <path class="cls-4" d="m408.82,190.03s13.25-4.8,14.95,5.41c1.7,10.21,1.52,20.36-.71,23.93-2.23,3.57-22.69,8.43-22.69,8.43l-35.39,7.73s-2.54.53-1.01-2.34c1.72-3.2,11.09-23.74,16.51-28.73,10-9.21,28.34-14.44,28.34-14.44h0Z"/>
  <g class="cls-8">
    <path d="m395.76,228.82s-.06-24.05,1.72-26.72c1.77-2.67,22.63-12.26,22.63-12.26,0,0-2.03-1.72-6.2-.93s-11.1,2.66-16.85,5.6c-5.76,2.93-14.97,7.14-18.41,12-1.5,2.11-4.63,7.16-7.61,12.64-3.88,7.12-7.56,14.74-7.56,15.15,0,.87-.21,1.67,3.23.94,7.97-1.69,29.04-6.4,29.04-6.4v-.02Z"/>
  </g>
  <path class="cls-4" d="m384.23,226.65c4.74,0,8.59-3.82,8.59-8.53s-3.85-8.53-8.59-8.53-8.59,3.82-8.59,8.53,3.85,8.53,8.59,8.53Z"/>
  <path class="cls-13" d="m375.64,218.12s-.1-.76.19-2.1c.29-1.31,1.13-3.26,3.11-4.79.98-.75,2.23-1.39,3.67-1.65,1.43-.25,3.06-.22,4.6.35.78.27,1.54.67,2.23,1.18.7.5,1.34,1.12,1.86,1.85,1.08,1.43,1.69,3.27,1.71,5.15-.02,1.9-.63,3.73-1.71,5.16-.52.72-1.17,1.35-1.86,1.85-.69.51-1.44.91-2.23,1.18-1.55.58-3.17.61-4.6.36-1.44-.27-2.69-.9-3.67-1.65-1.98-1.53-2.82-3.48-3.11-4.79-.29-1.34-.19-2.1-.19-2.1.06,0,0,.76.35,2.06.33,1.28,1.2,3.15,3.13,4.6.96.71,2.16,1.31,3.55,1.55,1.38.23,2.93.18,4.41-.38.74-.26,1.47-.65,2.12-1.14.66-.48,1.27-1.08,1.77-1.77,1.03-1.36,1.61-3.12,1.62-4.92-.01-1.8-.59-3.56-1.62-4.92-.5-.69-1.1-1.29-1.77-1.77-.66-.49-1.38-.88-2.12-1.14-1.48-.56-3.03-.61-4.41-.38-1.39.24-2.59.84-3.55,1.55-1.93,1.45-2.8,3.32-3.13,4.6-.34,1.3-.29,2.07-.35,2.06h0Z"/>
  <path class="cls-6" d="m384.23,217.75c-3.15,0-5.89,1.74-7.31,4.3-.66-1.19-1.03-2.54-1.03-3.99,0-4.58,3.74-8.29,8.35-8.29s8.35,3.71,8.35,8.29c0,1.45-.37,2.81-1.03,3.99-1.42-2.57-4.16-4.3-7.31-4.3h-.02Z"/>
  <path class="cls-1" d="m380.53,217.83c0,2.03,1.65,3.67,3.7,3.67s3.7-1.64,3.7-3.67-1.66-3.68-3.7-3.68-3.7,1.64-3.7,3.68Z"/>
  <path class="cls-13" d="m380.53,217.83s-.02-.08-.03-.24c0-.16,0-.39.07-.68.11-.57.47-1.44,1.34-2.12.83-.68,2.26-1.09,3.65-.59,1.39.46,2.6,1.91,2.58,3.63.02,1.71-1.2,3.18-2.58,3.63-1.39.5-2.82.09-3.65-.59-.86-.68-1.22-1.54-1.33-2.12-.06-.29-.08-.53-.07-.68,0-.16.02-.24.03-.24.04,0,.03.33.19.88.16.54.53,1.33,1.35,1.93.79.61,2.09.94,3.34.47,1.24-.43,2.31-1.74,2.3-3.27.02-1.53-1.05-2.84-2.3-3.27-1.25-.46-2.55-.13-3.34.46-.82.6-1.2,1.39-1.35,1.93-.16.55-.15.88-.19.88v-.02Z"/>
  <path class="cls-1" d="m380.98,212.07c-.14-.22.42-.95,1.78-1.46,1.32-.5,3.5-.65,5.55.42,2.04,1.09,3.14,2.97,3.45,4.34.33,1.4.04,2.28-.22,2.28-.3.02-.55-.75-1.14-1.76-.58-1.01-1.58-2.27-3.07-3.05-1.48-.78-3.1-.9-4.26-.82-1.17.07-1.95.3-2.1.04Z"/>
  <path class="cls-1" d="m378.84,213.41c-.47-.32-.7-.8-.46-1.03.24-.23.71,0,1.02.49.31.47.49.9.41.98-.08.07-.51-.12-.98-.44h0Z"/>
  <path class="cls-13" d="m249.07,191.29s.11-.02.34-.02c.25,0,.57-.02,1-.02.9,0,2.18-.02,3.83-.04,3.34-.02,8.15-.05,14.08-.08,11.91-.03,28.32-.07,46.44-.11,9.07,0,17.71,0,25.57-.02h16.21c1.63-.1,3.28.38,4.47,1.32,2.26,1.91,4.31,3.65,6.11,5.18.89.76,1.73,1.46,2.49,2.12.79.61,1.63.99,2.42,1.2.8.21,1.53.24,2.17.2.63-.02,1.17-.03,1.62-.05.42,0,.75-.02,1-.02h.34s-.11.02-.34.03c-.25.02-.57.03-.99.06-.44.02-.98.05-1.62.09-.63.05-1.39.04-2.21-.17-.82-.2-1.7-.57-2.51-1.2-.78-.65-1.62-1.35-2.53-2.1-1.81-1.51-3.87-3.23-6.13-5.12-1.15-.9-2.68-1.34-4.29-1.24-1.62,0-3.31,0-5.05.02-3.49,0-7.23.02-11.15.03-7.86.02-16.5.03-25.57.05h-46.44c-5.93-.02-10.73-.04-14.08-.05-1.65-.02-2.93-.02-3.83-.03-.42,0-.75-.02-1-.02-.22,0-.34-.02-.34-.02h0Z"/>
  <path class="cls-13" d="m83,303.45c.43-.89,1.33-1.53,3.11-1.33,4.95.56,56.86,1.71,64.01,0,7.15-1.71,30.99-28.57,41.07-30.4,8.46-1.54,49.6-2.35,62.64-1.98,13.05-.38,54.19.45,62.64,1.98,10.08,1.83,33.56,31.32,40.71,33.02,7.15,1.71,59.42-2.07,64.37-2.63,1.79-.2,2.69.43,3.11,1.33.88,1.85-.55,3.98-2.62,4.04-11.05.31-53.75.79-61.73.65-8.38-.15-94.09-1.71-108.45-1.97-21.65.13-95.63.61-103.47.72-9.24.13-51.77.9-62.83.6-2.06-.06-3.49-2.19-2.61-4.04h.03Z"/>
  <path class="cls-13" d="m268.41,96.04c-.43,0-.08,7.4-6.09,7.26-6.01-.14-17.34,0-17.34,0l-4.98-9.25,28.42,1.99Z"/>
  <path class="cls-13" d="m265.74,105.86c.84,0,1.62.39,2.12,1.07,1.43,1.94,4.3,5.97,4.38,7.22.1,1.68-.85,3.05-2.59,3.26-1.66.2-33.38.02-36.66,0-.21,0-.4-.02-.6-.08-.86-.21-3.11-.92-2.95-2.45.16-1.39,2.6-5.62,3.88-7.76.48-.79,1.32-1.27,2.25-1.27h30.18Z"/>
  <path class="cls-13" d="m362.76,94.05s.05.06.12.17c.08.13.18.3.3.5.28.47.66,1.13,1.13,1.95.99,1.74,2.39,4.2,4.11,7.22,3.45,6.14,8.19,14.59,13.44,23.92,4.24,7.62,8.14,14.63,11.26,20.24l-.04-.05c3.74,2.93,6.82,5.34,8.99,7.04,1.04.83,1.87,1.49,2.46,1.96.26.21.48.38.63.52.14.12.21.19.21.19,0,0-.09-.05-.24-.15-.17-.13-.4-.28-.67-.49-.6-.46-1.45-1.09-2.52-1.89-2.2-1.68-5.3-4.04-9.09-6.93l-.02-.02-.02-.03c-3.14-5.59-7.07-12.6-11.33-20.2-5.2-9.35-9.9-17.81-13.33-23.98-1.68-3.05-3.03-5.54-4-7.29-.45-.84-.81-1.51-1.07-1.99-.11-.21-.2-.39-.27-.52-.06-.12-.09-.18-.08-.19v.02Z"/>
  <path class="cls-13" d="m348.14,89.62s.81.1,2.06.49c1.24.4,2.96,1.06,4.59,2.27,1.62,1.21,2.74,2.67,3.48,3.74.73,1.09,1.09,1.8,1.05,1.83-.05.03-.51-.63-1.28-1.66-.79-1.01-1.92-2.41-3.49-3.58-1.58-1.16-3.23-1.86-4.44-2.32-1.21-.46-1.98-.7-1.96-.76h0Z"/>
  <g class="cls-8">
    <path d="m392.92,148.2l.76.52c.31-.38-18.3,38.36-27.05,48.58l-5.76-4.85c12.42-11.95,21.7-30.51,32.05-44.25Z"/>
  </g>
  <path class="cls-13" d="m356,300.5s-.17,0-.46-.17c-.29-.16-.69-.42-1.19-.8-1.02-.75-2.43-1.94-4.22-3.52-3.57-3.17-8.61-7.89-14.66-13.91-1.51-1.5-3.08-3.09-4.7-4.77-1.64-1.65-3.19-3.53-5.13-5.09-1.95-1.55-4.22-2.83-6.73-3.73-2.5-.9-5.21-1.43-8.02-1.64-1.4-.1-2.83-.1-4.28-.11-1.45-.02-2.92-.02-4.4-.04-2.96-.02-5.98-.06-9.06-.08-6.16-.05-12.52-.11-19.05-.17-26.11-.26-49.75-.49-66.87-.67-8.55-.1-15.46-.19-20.27-.25-2.38-.04-4.23-.07-5.51-.09-.62-.02-1.09-.02-1.43-.03-.32,0-.49-.02-.49-.02,0,0,.17-.02.49-.02h1.43c1.27,0,3.13,0,5.51,0,4.8.03,11.72.07,20.27.12,17.13.14,40.76.33,66.87.55,6.53.06,12.9.12,19.05.18,3.07.03,6.1.05,9.06.09,1.48.01,2.95.03,4.4.04,1.44.02,2.88.02,4.3.12,2.84.22,5.58.75,8.12,1.68,2.54.91,4.84,2.23,6.81,3.8,1.97,1.6,3.52,3.49,5.14,5.14,1.61,1.68,3.18,3.27,4.68,4.78,6.02,6.04,11.02,10.8,14.56,13.99,1.77,1.6,3.17,2.81,4.17,3.58.49.39.89.66,1.17.83.28.17.44.19.43.21h0Z"/>
  <g class="cls-8">
    <path class="cls-1" d="m398.68,253.58c2.45-2.41,4.92-4.83,7.83-6.66,2.91-1.83,7.09-3.97,9.73-2.27,1.34,1.45,2.42,3.12,3.18,4.93.26.61.48,1.34.19,1.94-.37.75-1.33.94-2.16,1.04-6.06.76-12.12,1.51-18.19,2.27-.35.05-.79.05-.96-.26-.18-.33.11-.72.38-.99Z"/>
  </g>
  <path class="cls-1" d="m403.32,304.94s0,.04-.02.05c-.39,1.34.63,2.83,2.03,2.79l13.17-.22c1.03-.02,1.89-1.04,2.01-2.05l.09-.72c.16-1.29-1.05-2.47-2.35-2.38l-13.06.95c-.87.06-1.64.73-1.88,1.57h0Z"/>
  <path class="cls-2" d="m157.63,297.32c0-.11,42.46-.2,94.83-.2s94.84.1,94.84.2-42.46.21-94.84.21-94.83-.1-94.83-.21Z"/>
  <path class="cls-2" d="m305.5,304.19h5.56l.4-6.87h-6.38l.42,6.87Z"/>
  <path class="cls-2" d="m253.48,304.19h5.56l.39-6.87h-6.37l.42,6.87Z"/>
  <path class="cls-2" d="m201.45,304.19h5.56l.39-6.87h-6.37l.42,6.87Z"/>
  <path class="cls-2" d="m160.57,294.84c10.06-8.61,23.62-21.85,30.59-23.12,8.46-1.54,49.6-2.35,62.64-1.98,13.05-.38,54.19.45,62.64,1.98,6.49,1.18,18.52,13.81,28.18,23.12h-184.07.02Z"/>
  <path class="cls-13" d="m428.32,290.33s-.17-.1-.48-.34c-.33-.25-.79-.6-1.35-1.03-1.2-.94-2.91-2.26-5.04-3.91l.1.03c-6.52.83-16.35,2.09-27.34,3.48-5.35.66-10.43,1.28-14.95,1.84l.06-.02c-5.5,2.93-10.15,5.42-13.47,7.19-1.62.85-2.92,1.53-3.84,2.01-.43.22-.77.39-1.03.52-.24.12-.36.17-.36.16,0,0,.11-.08.33-.21.25-.14.59-.34,1-.57.91-.5,2.2-1.22,3.8-2.11,3.3-1.8,7.93-4.33,13.4-7.32l.03-.02h.04c4.52-.57,9.6-1.21,14.95-1.89,11-1.34,20.83-2.54,27.36-3.34h.05l.04.03c2.1,1.69,3.78,3.05,4.97,4.01.55.46.99.82,1.32,1.08.29.25.44.39.44.39h0Z"/>
  <path class="cls-13" d="m360.62,275.31s-2.69-4.52,0-5.66c3.09-1.31,54.68-7.45,56.78-7.64,4.18-.37,5.7,1.51,6.69,6.39.98,4.88,3.15,16.98-.98,20.5-4.13,3.52-10.62,5.08-23.39,5.85-12.78.78-19.5,1.21-25.79-2.3-6.29-3.52-13.3-17.15-13.3-17.15h0Z"/>
  <path class="cls-13" d="m363.26,235.1c-.13-.06.35-1.49,1.38-4.01,1.03-2.53,2.61-6.15,4.77-10.53,1.1-2.18,2.31-4.57,3.75-7.07,1.44-2.49,3.03-5.15,5.05-7.76,1.01-1.28,2.19-2.62,3.53-3.73,1.33-1.13,2.81-2.16,4.37-3.06,1.55-.9,3.14-1.72,4.75-2.58,1.61-.85,3.25-1.71,4.94-2.53,3.38-1.65,6.79-3.1,10.22-4.16,1.71-.53,3.43-.95,5.12-1.29,1.68-.35,3.42-.59,5.17-.51,1.74.09,3.52.57,4.93,1.62,1.41,1.06,2.29,2.55,2.82,3.97.55,1.42.83,2.82,1.08,4.14.25,1.3.48,2.55.71,3.74.95,4.77,1.66,8.65,2.06,11.35.4,2.7.48,4.21.35,4.23-.14.02-.5-1.44-1.14-4.08-.64-2.67-1.56-6.48-2.69-11.19-.29-1.18-.56-2.45-.85-3.73-.29-1.28-.6-2.59-1.12-3.82-.5-1.24-1.24-2.37-2.3-3.14-1.07-.76-2.46-1.13-3.95-1.19-1.5-.05-3.07.18-4.69.54-1.62.34-3.26.77-4.91,1.28-3.3,1.04-6.6,2.45-9.92,4.07-1.66.81-3.29,1.65-4.89,2.49-1.6.85-3.2,1.66-4.68,2.52-1.49.85-2.86,1.78-4.12,2.82-1.28,1.04-2.3,2.18-3.3,3.41-1.96,2.46-3.59,5.03-5.07,7.45-1.48,2.42-2.76,4.75-3.93,6.88-2.31,4.26-4.08,7.77-5.33,10.19-1.24,2.42-1.97,3.74-2.11,3.68h.02Z"/>
  <path class="cls-6" d="m409.82,209.31c-4.02,0-7.51,2.21-9.32,5.48-.84-1.51-1.31-3.24-1.31-5.08,0-5.83,4.76-10.56,10.63-10.56s10.63,4.73,10.63,10.56c0,1.84-.48,3.57-1.32,5.08-1.81-3.27-5.3-5.48-9.32-5.48Z"/>
  <path class="cls-1" d="m405.23,209.36c0,2.51,2.05,4.55,4.58,4.55s4.58-2.04,4.58-4.55-2.05-4.55-4.58-4.55-4.58,2.04-4.58,4.55Z"/>
  <path class="cls-13" d="m405.23,209.36s-.02-.1-.02-.29.02-.48.1-.83c.15-.71.59-1.77,1.66-2.6,1.03-.83,2.77-1.33,4.48-.72.84.29,1.65.86,2.23,1.64.6.78.93,1.78.93,2.81,0,1.03-.34,2.03-.93,2.81-.58.79-1.39,1.35-2.23,1.65-1.71.61-3.45.12-4.48-.72-1.07-.83-1.5-1.9-1.66-2.6-.08-.36-.1-.65-.1-.83,0-.19.02-.29.02-.29.04,0,.03.41.22,1.09.19.68.66,1.65,1.68,2.41.99.75,2.61,1.18,4.18.6,1.55-.54,2.9-2.18,2.88-4.1.02-1.92-1.32-3.56-2.88-4.1-1.57-.58-3.19-.17-4.18.6-1.02.76-1.49,1.74-1.68,2.41-.19.68-.18,1.09-.22,1.09v-.02Z"/>
  <path class="cls-13" d="m399.18,209.71s-.02-.23,0-.68c0-.22,0-.5.06-.82.04-.32.08-.69.2-1.1.36-1.62,1.41-4.03,3.86-5.91,1.21-.92,2.75-1.71,4.52-2.03,1.77-.32,3.77-.27,5.68.44.96.33,1.89.83,2.74,1.46.86.62,1.65,1.38,2.3,2.28,1.34,1.76,2.09,4.03,2.12,6.36-.02,2.34-.78,4.6-2.12,6.36-.65.89-1.43,1.66-2.3,2.28-.86.63-1.78,1.13-2.74,1.46-1.91.72-3.91.76-5.68.44-1.78-.32-3.32-1.11-4.52-2.03-2.45-1.88-3.49-4.29-3.86-5.91-.12-.41-.16-.78-.2-1.1-.05-.32-.06-.6-.06-.82,0-.44,0-.68,0-.68.06,0,0,.94.41,2.56.41,1.58,1.47,3.92,3.87,5.72,1.19.88,2.69,1.63,4.41,1.93,1.71.29,3.64.24,5.49-.46.93-.32,1.82-.8,2.64-1.42.83-.6,1.58-1.35,2.2-2.2,1.28-1.7,2-3.88,2.03-6.12-.02-2.24-.74-4.42-2.03-6.12-.62-.86-1.37-1.61-2.2-2.2-.82-.61-1.71-1.09-2.64-1.42-1.84-.7-3.77-.75-5.49-.46-1.73.3-3.22,1.05-4.41,1.93-2.4,1.8-3.47,4.13-3.87,5.72-.41,1.61-.35,2.57-.41,2.56Z"/>
  <path class="cls-1" d="m405.8,202.21c-.14-.21.59-1.06,2.24-1.64,1.62-.57,4.26-.72,6.72.58,2.46,1.31,3.81,3.56,4.23,5.22.44,1.69.14,2.76-.11,2.76-.31.02-.55-.94-1.24-2.23-.68-1.29-1.94-2.93-3.84-3.93-1.9-1-3.97-1.12-5.43-.97-1.47.14-2.41.49-2.57.22h0Z"/>
  <path class="cls-1" d="m403.14,203.88c-.47-.32-.67-.83-.4-1.1.28-.27.79-.05,1.1.43s.45.93.34,1.05c-.12.11-.57-.05-1.04-.37h0Z"/>
  <path class="cls-13" d="m342.8,249.59c-.14-.55,13.85-4.53,31.25-8.9,17.4-4.37,31.62-7.46,31.75-6.91.14.55-13.85,4.53-31.25,8.9-17.4,4.37-31.61,7.46-31.75,6.91h0Z"/>
  <path class="cls-13" d="m426.6,191.8s-.02-.08-.06-.24c-.03-.16-.08-.39-.16-.69-.17-.6-.44-1.49-1.04-2.52-.59-1.01-1.55-2.16-3-3.01-.36-.22-.77-.38-1.17-.57-.44-.13-.86-.31-1.33-.39-.47-.08-.95-.21-1.45-.22-.5-.03-1.02-.01-1.54.03-2.12.18-4.41.72-6.85,1.38-2.43.66-4.99,1.48-7.67,2.4-5.34,1.86-11.17,4.1-17.1,6.84-.74.35-1.47.7-2.17,1.08-.7.37-1.34.83-1.96,1.32-1.24.98-2.35,2.07-3.31,3.25-1.81,2.45-3.46,4.94-5.05,7.26-3.16,4.67-5.89,8.97-8.11,12.61-2.22,3.65-3.94,6.64-5.11,8.72-.58,1.02-1.03,1.82-1.36,2.39-.15.26-.27.46-.36.62-.08.14-.13.21-.14.21,0,0,.02-.08.1-.22.08-.16.19-.38.32-.64.29-.56.71-1.39,1.28-2.43,1.13-2.1,2.81-5.12,5-8.8,2.2-3.67,4.9-7.98,8.05-12.67,1.59-2.35,3.21-4.8,5.05-7.3.98-1.21,2.12-2.32,3.37-3.32.63-.49,1.29-.98,2.02-1.36.72-.39,1.45-.74,2.19-1.09,5.95-2.75,11.79-4.97,17.15-6.82,2.69-.91,5.26-1.72,7.71-2.38,2.44-.65,4.75-1.16,6.91-1.34.54-.05,1.07-.05,1.59-.02.52.02,1.01.16,1.49.24.48.09.92.28,1.36.42.41.21.83.37,1.2.6,1.48.9,2.45,2.08,3.03,3.13.58,1.06.84,1.97.97,2.58.07.31.1.54.12.71.02.16.02.24,0,.24h0Z"/>
  <g class="cls-8">
    <path class="cls-1" d="m429.9,196.26c.78.26,5.09,2.92,6.91,3.93,1.82,1.01,3.41,2.61,3.95,4.62.52,2-.06,4.11-.63,6.09-1.88,6.49-4.06,18.16-5.93,24.64-1.47-11.77-3.07-31.82-4.29-39.3"/>
  </g>
  <path class="cls-2" d="m370.9,289.64c-.02-.11,12.21-1.89,27.31-3.96,15.1-2.08,27.35-3.67,27.36-3.56.02.11-12.21,1.89-27.31,3.96-15.09,2.08-27.35,3.67-27.36,3.56Z"/>
  <path class="cls-2" d="m374.8,292.62s.18-.06.51-.11c.37-.06.86-.14,1.46-.24,1.27-.2,3.11-.46,5.38-.78,4.55-.63,10.83-1.41,17.79-2.23,6.92-.82,13.2-1.57,17.79-2.11,2.24-.27,4.07-.49,5.39-.65.6-.06,1.09-.12,1.46-.16.33-.03.52-.04.52-.03,0,.02-.17.05-.51.11-.37.06-.85.14-1.46.24-1.27.2-3.11.46-5.38.78-4.55.63-10.83,1.41-17.79,2.23-6.92.82-13.19,1.57-17.79,2.11-2.24.27-4.07.49-5.39.64-.6.06-1.09.12-1.47.16-.33.03-.52.04-.52.03Z"/>
  <path class="cls-2" d="m383.37,294.84s.48-.08,1.38-.19c.97-.13,2.26-.28,3.83-.48,3.3-.39,7.73-.92,12.64-1.51,4.9-.55,9.35-1.05,12.64-1.42,1.57-.16,2.87-.29,3.83-.39.9-.08,1.41-.12,1.41-.09s-.49.12-1.39.24c-.97.13-2.26.31-3.82.52-3.23.42-7.69.97-12.63,1.54-4.94.57-9.4,1.06-12.64,1.39-3.23.32-5.28.49-5.24.38h0Z"/>
  <path class="cls-2" d="m368.05,286.25c-.02-.11,12.85-1.89,28.73-3.96,15.89-2.08,28.78-3.67,28.79-3.56.02.11-12.85,1.89-28.74,3.96-15.88,2.08-28.77,3.67-28.79,3.56h0Z"/>
  <path class="cls-2" d="m365.81,283.11c-.01-.11,13.31-1.94,29.75-4.09,16.45-2.15,29.8-3.8,29.81-3.69.02.11-13.3,1.94-29.76,4.09-16.45,2.15-29.79,3.8-29.81,3.68h0Z"/>
  <path class="cls-2" d="m363.3,279.39c-.02-.11,13.68-1.99,30.59-4.2,16.91-2.21,30.64-3.91,30.64-3.79.02.11-13.68,1.99-30.6,4.2-16.91,2.21-30.63,3.91-30.64,3.79h0Z"/>
  <path class="cls-2" d="m361.37,275.6c-.02-.11,13.93-2.02,31.14-4.27,17.22-2.25,31.17-3.98,31.19-3.86.02.11-13.92,2.02-31.14,4.27-17.21,2.25-31.17,3.98-31.19,3.86Z"/>
  <path class="cls-2" d="m359.43,271.81c-.02-.11,14.04-2.04,31.39-4.3,17.35-2.27,31.43-4.01,31.44-3.9.02.11-14.04,2.04-31.39,4.3-17.35,2.27-31.43,4.01-31.44,3.9Z"/>
  <path class="cls-2" d="m404.86,263.16c.11-.02,1.66,6.75,3.45,15.13,1.8,8.38,3.16,15.19,3.05,15.22-.11.02-1.66-6.75-3.45-15.13-1.8-8.38-3.16-15.2-3.05-15.22Z"/>
  <path class="cls-2" d="m410.05,262.3c.11-.02,1.65,6.75,3.45,15.13,1.8,8.38,3.16,15.2,3.05,15.22-.11.02-1.66-6.75-3.45-15.13-1.8-8.38-3.16-15.19-3.05-15.22Z"/>
  <path class="cls-2" d="m415.23,261.43c.11-.02,1.58,6.39,3.28,14.31,1.7,7.93,2.99,14.38,2.88,14.4-.11.02-1.58-6.38-3.28-14.31-1.7-7.92-2.99-14.38-2.88-14.4Z"/>
  <path class="cls-2" d="m420.86,262.61s.12.29.26.83c.14.54.33,1.33.55,2.31.44,1.96.98,4.67,1.51,7.69.54,2.96,1.02,5.63,1.4,7.7.17.92.31,1.7.42,2.34.1.55.13.87.1.87-.03,0-.12-.29-.26-.83s-.33-1.33-.55-2.31c-.44-1.96-.98-4.67-1.51-7.7-.54-2.96-1.02-5.63-1.39-7.7-.17-.92-.31-1.7-.42-2.34-.1-.55-.13-.87-.1-.87h0Z"/>
  <path class="cls-2" d="m398.87,264.22c.11-.02,1.61,6.51,3.34,14.6,1.73,8.09,3.05,14.67,2.94,14.69-.11.02-1.61-6.52-3.34-14.6-1.73-8.09-3.05-14.67-2.94-14.69Z"/>
  <path class="cls-2" d="m392.91,265.42c.11-.02,1.61,6.53,3.35,14.64,1.73,8.11,3.06,14.71,2.95,14.73-.11.02-1.61-6.53-3.35-14.64-1.74-8.1-3.06-14.7-2.95-14.72h0Z"/>
  <path class="cls-2" d="m386.76,265.74c.11-.02,1.6,6.48,3.32,14.51,1.73,8.04,3.03,14.57,2.92,14.6-.11.02-1.6-6.47-3.32-14.51-1.72-8.03-3.03-14.57-2.92-14.6Z"/>
  <path class="cls-2" d="m380.71,266.53c.11-.02,1.59,6.44,3.3,14.43,1.71,8,3.01,14.49,2.9,14.52-.11.02-1.59-6.44-3.3-14.43-1.71-7.99-3.01-14.49-2.9-14.52Z"/>
  <path class="cls-2" d="m374.73,267.7c.11-.02,1.5,6.02,3.11,13.49,1.6,7.48,2.81,13.56,2.7,13.58-.11.02-1.5-6.02-3.1-13.5-1.6-7.47-2.81-13.56-2.7-13.58Z"/>
  <path class="cls-2" d="m368.63,268.21c.11-.02,1.42,5.63,2.91,12.61,1.5,6.99,2.62,12.68,2.51,12.7-.11.02-1.42-5.62-2.92-12.61-1.5-6.99-2.62-12.67-2.51-12.69h0Z"/>
  <path class="cls-2" d="m362.61,269.18c.11-.02.92,3.3,1.81,7.43.89,4.12,1.51,7.49,1.4,7.51-.11.02-.92-3.3-1.81-7.43-.89-4.12-1.51-7.49-1.4-7.51Z"/>
  <path class="cls-13" d="m165.13,291.73c0-.11,39.37-.2,87.92-.2s87.93.09,87.93.2-39.36.21-87.93.21-87.92-.09-87.92-.21Z"/>
  <path class="cls-13" d="m168.58,287.78c0-.11,37.68-.2,84.14-.2s84.14.09,84.14.2-37.67.2-84.14.2-84.14-.09-84.14-.2Z"/>
  <path class="cls-13" d="m173.82,283.73c0-.11,35.63-.21,79.58-.21s79.59.1,79.59.21-35.63.2-79.59.2-79.58-.1-79.58-.2Z"/>
  <path class="cls-13" d="m177.31,279.69c0-.11,33.94-.21,75.8-.21s75.81.09,75.81.21-33.93.2-75.81.2-75.8-.09-75.8-.2Z"/>
  <path class="cls-13" d="m183.12,275.84c0-.11,31.47-.21,70.28-.21s70.29.1,70.29.21-31.46.2-70.29.2-70.28-.09-70.28-.2Z"/>
  <path class="cls-13" d="m189.72,271.99c0-.11,28.43-.2,63.49-.2s63.5.09,63.5.2-28.43.21-63.5.21-63.49-.1-63.49-.21Z"/>
  <path class="cls-13" d="m251.86,102.67h-2.15v3.85h2.15v-3.85Z"/>
  <g class="cls-8">
    <path class="cls-1" d="m130.46,174.81s3.88-1.31,3.12-4.2c0,0,11.26,6.55,26.58,6.32,15.31-.23,71.44,3.18,71.44,3.18l6.43,8.82s-95.03-2.19-98.56.09l-9.02-14.21Z"/>
  </g>
  <g class="cls-8">
    <path class="cls-1" d="m94.8,181.83c-.78,0,24.22,8.54,27.46,11.22l5.1-1.11-17.85-29.4-2.05-.47s-6.13,19.79-12.67,19.76h0Z"/>
  </g>
  <g class="cls-8">
    <path class="cls-1" d="m154.93,92.49c.48,0,97.88-4.14,97.72-5.41-.16-1.27-43.43-1.11-62.44,0-19,1.11-35.29,5.41-35.29,5.41Z"/>
  </g>
  <g class="cls-12">
    <path class="cls-1" d="m114.16,146.23l79.19-19.41,14.93-32.47-64.05,2.64c-1.05.04-1.46.35-1.98,1.25l-28.08,47.99Z"/>
  </g>
</svg>