<?xml version="1.0" encoding="UTF-8"?>
<svg id="Layer_1" data-name="Layer 1" xmlns="http://www.w3.org/2000/svg" viewBox="0 0 19.66 23.13">
  <defs>
    <style>
      .cls-1 {
        fill: #080808;
      }

      .cls-2 {
        fill: none;
      }
    </style>
  </defs>
  <path class="cls-1" d="m11.77,20c0,.92,0,1.84-.01,2.76,0,.13-.05.25-.08.37h-3.67c-.03-.07-.07-.14-.07-.21,0-.97,0-1.93,0-2.9,0-.06.03-.12.06-.19h3.69v.05h.01s.05.08.07.12Z"/>
  <path class="cls-1" d="m13.05,17.95v1.02s-.08.05-.13.08c-1.97,0-3.95,0-5.93-.02-.14,0-.29-.03-.43-.05-.03-.39-.06-.78-.1-1.25,1.56.37,3.07.6,4.62.39.18-.03.36-.06.55-.1.39-.07.77-.15,1.16-.23.16-.03.31-.07.26.16Z"/>
  <path class="cls-1" d="m19.61,7.93c-.07-.59-.2-1.18-.39-1.76-.38-1.12-.98-2.17-1.78-3.05C15.27.77,11.89-.28,8.7.06,6.25.33,3.85,1.41,2.19,3.23.53,5.06-.34,7.65.12,10.07c.4,2.1,1.74,3.95,3.46,5.21,2.34,1.73,5.41,2.44,8.27,1.89,2.36-.44,4.63-1.76,6.17-3.62.19-.23.38-.49.54-.75.19-.3.35-.62.46-.96.11-.34.27-.66.37-1,.14-.5.22-1.02.25-1.55.03-.45.01-.9-.03-1.36Zm-13.28,2.69c-.3-.26-.24-.53.2-.76.52-.26,1.05-.52,1.56-.79.19-.09.37-.15.37-.41,0-.68.51-1.16,1.29-1.22h.27c1.14.15,1.51,1.17,1.03,1.88-.27.36-.67.49-1.1.6h-.2c-.2-.07-.43-.11-.61-.22-.17-.09-.25-.08-.42,0-.63.34-1.28.65-1.92.98-.19.1-.33.06-.47-.06Zm6.83,4.55c0,.06-.03.13-.05.19-.14.1-.27.2-.41.31-.05,0-.11-.02-.15-.02-1.65,0-3.29,0-4.93.01-.22,0-.41,0-.61,0-.13-.09-.26-.17-.39-.26-.01-.02-.03-.04-.03-.06v-2.59s.02-.04.03-.06c.13-.11.26-.21.39-.31h5.69c.13.08.26.16.39.25v.05c.04.07.07.13.07.19v2.29Zm4.56-5.69c-.02.25-.06.5-.11.75-.13.66-.55,2.49-1.58,2.05-.21-.09-.4-.2-.6-.31-.28-.14-.55-.28-.82-.42-.12-.11-.24-.23-.36-.35.11-.46.4-.57.84-.32.21.11.41.21.61.31.14.08.3.16.45.24.09-.14.16-.28.23-.41.14-.39.27-.77.4-1.15.05-.25.08-.51.12-.79h-1.41c-.33-.07-.53-.26-.47-.46.06-.21.19-.37.47-.31h1.39c-.04-.23-.07-.42-.1-.61-.06-.63-.25-1.22-.64-1.76-.17.07-.3.13-.44.2-.23.12-.44.26-.67.37-.4.18-.69.06-.76-.32.07-.11.11-.27.2-.33.34-.19.68-.35,1.03-.51.06-.05.11-.09.19-.16-.16-.17-.31-.34-.47-.51-.11-.12-.23-.24-.34-.36-.16-.12-.32-.24-.48-.37-.18-.12-.37-.24-.6-.4-.21.31-.39.6-.56.88-.25.38-.73.45-.97.14-.05-.05-.03-.12-.05-.19v-.18s.05-.08.06-.12c.21-.28.41-.57.61-.85.02-.28-.24-.22-.4-.29-.03-.01-.05-.01-.08-.02-.45-.12-.9-.24-1.36-.36-.16-.02-.33-.04-.48-.06h-.06c-.12.02-.14.13-.15.23-.02.35-.03.7-.05,1.05-.09.27-.31.34-.59.29-.26-.04-.32-.23-.32-.45.01-.37,0-.73,0-1.12-.94.05-1.81.23-2.63.6.24.37.47.7.64,1.04.08.13.08.35-.01.44-.09.1-.33.16-.5.14-.13-.01-.26-.16-.35-.28-.21-.27-.4-.57-.62-.9-.29.22-.56.41-.84.6-.37.34-.73.69-1.12,1.06.43.22.81.4,1.18.6.31.16.38.4.23.59-.19.23-.51.25-.77.05-.27-.14-.56-.26-.81-.41-.18-.11-.33,0-.43.14l-.21.75-.16.56-.04.13c-.05.12-.11.29-.12.44,0,.14.05.25.25.25.28,0,.55.02.81,0,.38-.04.61.1.78.34-.21.35-.48.52-.93.46-.29-.04-.6-.01-.95-.01.07.35.13.65.17.96.08.22.14.45.21.67.09.18.18.38.29.56.05.06.19.12.25.1.31-.15.6-.32.89-.49.26-.18.6-.16.77.04.15.19.08.43-.2.58-.49.27-1,.52-1.52.77-1.13.58-1.7-2.63-1.73-3.33-.14-3.07,2.09-5.86,4.94-6.82.87-.29,1.77-.46,2.69-.49,3.24-.1,6.71,1.69,7.81,4.87.32.94.44,1.96.35,2.96Z"/>
  <path class="cls-1" d="m10.26,8.66c0,.24-.2.42-.46.42-.24-.01-.43-.2-.43-.42s.21-.42.42-.42c.27.01.47.19.47.42Z"/>
  <path class="cls-1" d="m12.17,13.25c0,.52-.01,1.04-.01,1.56.01.02.01.04,0,.06-1.54-.01-3.09-.01-4.64-.01-.01-.55-.01-1.09-.02-1.63.01,0,.02,0,.03.02,1.53,0,3.05.01,4.58.01,0-.01,0-.02-.01-.03.03,0,.05,0,.07.02Z"/>
  <polyline class="cls-2" points="2.84 8.04 2.84 8.03 2.96 7.6 3 7.47 3.16 6.91 3.37 6.16 3.46 5.86"/>
</svg>