<?xml version="1.0" encoding="UTF-8"?>
<svg id="Layer_1" data-name="Layer 1" xmlns="http://www.w3.org/2000/svg" viewBox="0 0 64.24 64.24">
  <path d="m39.39,10.38c.22,2,.44,3.9.61,5.8.04.41-.02.88-.2,1.25-1.08,2.3-.49,4.92,1.48,6.47,1.92,1.5,4.63,1.45,6.56-.13,2.4-1.96,2.47-5.64.2-7.84-.34-.33-.59-.86-.68-1.33-.21-1.16-.31-2.34-.47-3.68,1.52.21,2.84.38,4.15.57,1.14.17,1.69.95,1.8,2.01.42,3.99.86,7.97,1.17,11.97.19,2.44.15,4.9.2,7.35.03,1.37-.46,2.45-1.48,3.46-8.83,8.75-17.61,17.56-26.4,26.36-1.33,1.33-2.85,1.99-4.68,1.38-.71-.24-1.42-.69-1.95-1.22-6.1-6.05-12.17-12.12-18.23-18.2-1.97-1.98-1.95-4.53.04-6.52,9.04-9.06,18.09-18.1,27.15-27.14.24-.24.6-.52.9-.53,3.34-.04,6.67-.02,9.84-.02Zm-4.21,27.5c.91-.53,2.02-1.17,3.31-1.91-.76-1.19-1.39-2.37-2.22-3.4-.54-.67-.55-1.04.1-1.53.5-.38.96-.82,1.38-1.17-.9-.92-1.63-1.67-2.56-2.62-.67.8-1.35,1.6-1.97,2.34-.76-.37-1.34-.72-1.96-.95-.62-.22-1.28-.38-1.94-.46-3.35-.42-6.46,2.64-5.93,5.97.21,1.35.79,2.65,1.21,3.96.38,1.18.97,2.33,1.14,3.54.2,1.41-1.02,2.26-2.4,1.85-1.39-.42-2.3-1.46-3.04-2.61-.71-1.11-1.26-2.32-1.91-3.53-1.09.65-2.23,1.33-3.56,2.13,1.05,1.73,2.05,3.38,3.17,5.21-.67.58-1.44,1.25-2.15,1.87.84.86,1.58,1.63,2.39,2.45.63-.65,1.29-1.3,1.9-1.98.33-.37.57-.32.99-.13,1,.46,2.02.96,3.09,1.18,3.31.69,6.83-2.21,6.71-5.59-.04-1.22-.45-2.44-.82-3.62-.45-1.43-1.12-2.79-1.52-4.22-.13-.48.14-1.21.46-1.64.41-.55,1.16-.56,1.76-.26.56.28,1.17.61,1.55,1.09.97,1.24,1.81,2.57,2.83,4.04Z"/>
  <path d="m64.24,12.33c-.17,6.2-1.53,11.69-4.27,16.81-.52.98-1.23,1.36-2.16,1.19-.8-.14-1.45-.72-1.48-1.57-.02-.54.18-1.15.43-1.65,2.45-4.85,3.75-9.98,3.64-15.43-.08-3.67-2.43-6.76-5.77-7.64-5.07-1.33-10.05,3.02-9.39,8.27.27,2.21.72,4.39,1.04,6.59.08.53.09,1.13-.06,1.63-.23.76-1.11,1.23-1.85,1.16-.83-.08-1.53-.6-1.69-1.49-.45-2.46-.87-4.93-1.23-7.4-.31-2.12.07-4.16.95-6.1C44.31,2.42,48.81-.27,53.5.02c4.65.29,8.62,3.43,10.02,7.95.21.69.4,1.39.51,2.1.13.88.17,1.77.21,2.25Z"/>
</svg>