<?xml version="1.0" encoding="UTF-8"?>
<svg id="Layer_1" data-name="Layer 1" xmlns="http://www.w3.org/2000/svg" viewBox="0 0 218.36 218.3">
  <path d="m77.61,71.51c.36-35.05,23.65-63.64,56.71-70.15,35.64-7.02,69.05,13.75,80.02,46.02,13.34,39.25-8.97,80.65-48.94,91.2-1.82.48-2.99.23-4.3-1.43-4.8-6.09-11.31-9.05-19-9.22-7.29-.16-14.59.11-21.88-.14-2-.07-4.29-.88-5.87-2.1-5.84-4.49-12.11-8.03-19.09-10.39-1.07-.36-2.16-1.17-2.86-2.07-9.85-12.7-14.73-27.11-14.79-41.74Zm63.95-32.11c-9.75,4.68-14.26,12.46-12.43,21.87,1.56,8.04,8.4,15.29,19.1,15.52,2.82.06,4.88,1.63,5.75,4.3.82,2.51.31,4.9-1.73,6.75-2.13,1.92-4.74,2.27-7.13.99-2.2-1.18-4.08-3-5.99-4.66-2.53-2.2-6.11-2.32-8.52-.16-2.47,2.22-3.01,5.86-.91,8.43,1.59,1.96,3.29,4.3,5.47,5.24,5.35,2.28,7.19,5.77,6.53,11.49-.39,3.39,2.92,5.93,6.32,5.9,3.31-.03,5.91-2.37,6.23-5.76.15-1.6.22-3.23.06-4.82-.22-2.27.59-3.48,2.69-4.58,11.29-5.9,13.54-21.08,4.64-30.17-3.94-4.02-8.8-5.56-14.3-5.91-3.96-.25-6.52-4.02-5.62-7.63.93-3.75,4.68-5.93,8.33-4.55,1.8.68,3.44,1.91,5.02,3.07,3.03,2.21,6.72,2.06,8.98-.5,2.4-2.71,2.21-6.52-.53-9.15-.95-.91-1.94-2.06-3.12-2.41-5.58-1.63-6.61-5.44-6.19-10.68.31-3.81-2.88-6.5-6.46-6.38-3.47.12-6.06,2.79-6.18,6.5-.08,2.45-.01,4.91-.01,7.3Z"/>
  <path d="m51.7,212.91v-3.21c0-24.24.03-48.48-.05-72.72,0-2.09.73-3.22,2.42-4.25,15.76-9.65,36.73-8.41,51.04,3.34,4.63,3.8,9.6,5.73,15.6,5.53,6.72-.22,13.45-.07,20.17-.05,7.77.02,13.4,5.38,13.43,12.75.03,7.31-5.66,12.79-13.38,12.8-12.69.02-25.38-.02-38.08.02-5.09.01-8.12,3.83-6.75,8.39.85,2.82,3.14,4.35,6.84,4.38,7.2.04,14.4.01,21.6.02,8.71,0,17.43-.09,26.14.03,7.01.1,12.56-2.49,17.11-7.87,9.18-10.83,18.52-21.53,27.88-32.2,5.65-6.44,14.91-6.23,20,.3,3.67,4.71,3.69,12.52-.6,18.34-10.77,14.62-21.49,29.29-32.77,43.52-8.66,10.92-20.55,16.13-34.51,16.2-19.98.1-39.97.1-59.96-.02-11.59-.07-22.99-1.83-34.22-4.62-.62-.15-1.21-.43-1.92-.69Z"/>
  <path d="m0,173.35c0-12.31,0-24.61,0-36.92,0-5.28,2.31-7.64,7.6-7.66,4.54-.02,9.1-.14,13.63.15,9.77.62,17.4,8.81,17.44,18.63.06,17.32.06,34.65,0,51.97-.04,10.23-8.33,18.52-18.61,18.72-4.35.08-8.71.05-13.07,0-4.45-.04-6.97-2.61-6.98-7.13-.02-12.59,0-25.18,0-37.77Z"/>
</svg>