<?xml version="1.0" encoding="UTF-8"?>
<svg id="Layer_1" data-name="Layer 1" xmlns="http://www.w3.org/2000/svg" viewBox="0 0 88.78 27.01">
  <defs>
    <style>
      .cls-1 {
        fill: #c49c2d;
      }
    </style>
  </defs>
  <path class="cls-1" d="m11.51,26.41c-.08.07-.17.13-.25.2-.36.24-.71.37-1.1.39-1.48.11-2.53-.95-2.83-1.85-.49-1.47.27-2.79,1.59-3.23.69-.23,1.32-.21,1.96.09.76.34,1.38.9,1.52,1.69.17,1.01.09,1.9-.89,2.71Z"/>
  <path class="cls-1" d="m28.84,7.26c-.26-.51-.53-1.02-.8-1.53h0c.26.51.53,1.02.79,1.53Z"/>
  <path class="cls-1" d="m28.84,7.26c-.26-.51-.53-1.02-.8-1.53h0c.26.51.53,1.02.79,1.53Z"/>
  <path class="cls-1" d="m88.45,3.94c-.06-.17-.14-.35-.22-.51-.64-1.33-1.89-2.29-3.27-2.8-1.83-.66-4.03-.82-5.94-.39-.92.21-1.78.58-2.52,1.17-.77.61-1.32,1.53-2.3,1.84-.75.23-1.56.03-2.34-.07-2.39-.31-5.02.55-6.4,2.54-.8,1.16-1.12,2.57-1.41,3.95-.35,1.75-.67,3.5-.96,5.26-.05.29-.1.58-.26.83-.48.72-1.58.54-2.41.27.51-2.61,1.02-5.23,1.53-7.85.13-.67.26-1.36.11-2.02-.35-1.57-2.07-2.39-3.64-2.73-1.95-.42-6.35-.99-7.66,1.2-.03.05-.05.12-.09.16-1.15,1.13-1.74,2.52-2,4.08-.14.86-.34,1.7-.51,2.55-.03.12-.05.25-.07.37-.17.8-.33,1.59-.5,2.38-.34,1.63-.65,3.27-1.02,4.89-.16.71-.13.82.56.85.31-.03.62-.06.93-.08,1.03-.07,6.91-.84,6.69.7-.09.66-.33,1.54-.97,1.87-.56.29-1.23.07-1.85-.05-.12-.03-.26-.05-.37,0-.12.06-.2.19-.26.32-.45.85-.89,1.7-1.34,2.55-.06.12-.13.27-.06.39.05.07.13.11.21.14,1.33.53,2.79.78,4.21.56,1.41-.23,2.77-.95,3.64-2.09.44-.59.75-1.27,1.05-1.95.22-.5.37-1.84.68-2.19.43-.5,1.55-.27,2.27-.27,3.64.01,7.68.96,10.46-1.88.97-1,1.87-2.15,3.15-2.72,1.51-.67,3.31-.38,4.78.37,1.47.74,2.69,1.9,3.88,3.05.03-2.14-.94-4.15-1.96-6.02-.18-.34-.37-.68-.39-1.06-.05-.86.73-1.76.27-2.49-.09.95-1.13,1.47-2.05,1.75-.91.27-1.97.59-2.32,1.48-.18.45-.31,1.13-.79,1.09-.15-.01-.29-.1-.4-.19-.93-.75-1.38-2.04-1.13-3.2.44-2,2.57-3.13,3.55-4.93-.39-.09-.7-.46-.72-.86.6.16,1.23.32,1.83.15.93-.26.85-2.12,1.61-1.92.5.14.61.57.79.95.31.63.57,1.29.94,1.89,1.34,2.14,2.7,4.27,4.07,6.4.1.16.29.21.45.16.27-1.36.49-2.78.68-4.15.17-1.25.2-2.56-.21-3.74Zm-31.34,4.89c-.06.31-.14.61-.19.86-.06.31-.12.63-.18.94-.07.36-.14.73-.22,1.09-.19.97-.38,1.95-.57,2.92-.09.5.01,1.44-.6,1.67-.41.15-1.07.02-1.51.02h-1.62c-.36,0-.49-.03-.42-.4.06-.34.17-.68.24-1.02.08-.47.13-.96.25-1.43.19-.98.37-1.96.52-2.95.11-.65.21-1.32.43-1.94.26-.74.64-1.17,1.19-1.7.57-.37,1.19-.5,1.85-.38,1.12.2,1.03,1.33.83,2.32Zm15.86-.5c-.02.12-.04.25-.06.37-.45,2.4-.93,4.79-1.46,7.17-.14.62-.74.43-1.21.43-.86-.01-1.71-.01-2.56-.01-.53,0-.34-.49-.26-.83.2-.95.34-1.9.5-2.85.02-.1.04-.21.06-.31.18-1.03.38-2.06.67-3.07.21-.69.49-1.4,1.05-1.89.5-.43,1.14-.51,1.77-.45.58.05,1.28.07,1.47.73.07.23.06.47.03.71Z"/>
  <path class="cls-1" d="m45.46,7.08c.13,1.67-.47,3.6-.82,5.18-.43,1.95-.91,3.89-1.14,5.88-.06.49-.12,1.22-.56,1.54s-1.15.12-1.68.13l-2.29.02c-2.48,0-4.96.03-7.44.05-.35,0-1.37.19-1.62-.08-.17-.18-.04-.69,0-.89.09-.67.34-1.32.39-1.99.13-1.61,1.16-1.41,2.48-1.34,1.08.06,2.16.08,3.24.11.95.03,2.63.45,3.23-.51.48-.77.39-1.87.58-2.73.21-.93.42-1.86.55-2.8.1-.67.47-2.03-.17-2.52-.49-.38-1.62-.15-2.15.09-.72.33-1.15.99-1.32,1.75-.26,1.17-.73.99-1.8.99h-2.65c-.19,0-.43.03-.35-.31.66-2.79,1.85-5.64,4.92-6.37,2.11-.5,4.75-.35,6.66.71,1.33.73,1.83,1.85,1.93,3.11Z"/>
  <path class="cls-1" d="m28.49,14.82c-1.28,2.26-3.59,3.99-6.1,4.37-.82.12-1.66.12-2.49.12-2.04,0-4.08.02-6.12-.02-.85-.02-1.7-.09-2.54-.08s-1.76.4-2.57.4c-1,.38-1.83,1.12-2.49,1.97-.5.65-1.02,2.35-1.67,2.75-.59.37-2.34.07-3.04.04-.28-.01-.55-.03-.83-.05-.13.01-.25.03-.37.04-.09-.02-.18-.03-.27-.05-.06-.01.98-3.09,1.1-3.34.6-1.24,1.42-2.37,2.43-3.31,2.09-1.96,4.72-2.91,7.56-2.92s5.58-.03,8.37-.05c2.12-.01,4.69.16,5.54-2.32.46-1.34-.11-3-1.36-3.68-.87-.47-1.9-.46-2.89-.44-1.64.04-3.29.07-4.93.11-1.31.03-2.1.12-1.84-1.28.19-1.04.42-2.08.63-3.11.03-.15.07-.32.2-.41.1-.06.22-.06.33-.06,2.54.05,5.08.11,7.61.16.78.02,1.57.03,2.33.22,1.41.35,2.66,1.31,3.36,2.58,1.38,2.5,1.44,5.88.04,8.35Z"/>
</svg>